<?xml version="1.0" encoding="utf-8"?>
<!-- Generator: Adobe Illustrator 27.1.1, SVG Export Plug-In . SVG Version: 6.00 Build 0)  -->
<svg version="1.1" id="Layer_1" xmlns="http://www.w3.org/2000/svg" xmlns:xlink="http://www.w3.org/1999/xlink" x="0px" y="0px"
	 viewBox="0 0 618.38 347.74" style="enable-background:new 0 0 618.38 347.74;" xml:space="preserve">
<style type="text/css">
	.st0{fill:#01103B;}
	.st1{fill:url(#SVGID_1_);}
	.st2{fill:#FFFFFF;}
	.st3{fill:url(#SVGID_00000098205078991990686780000001850892688404463753_);}
	.st4{fill:url(#SVGID_00000110439990017263923260000008123785512832396169_);}
	.st5{fill:#B2E2F6;stroke:#29398F;stroke-width:0.25;stroke-linecap:round;stroke-linejoin:round;stroke-miterlimit:10;}
	.st6{fill:url(#SVGID_00000065063683971582849960000017962801219757236116_);}
	.st7{fill:url(#SVGID_00000107547913418664115130000001043089815527030963_);}
	.st8{fill:url(#SVGID_00000051360845990265518130000016689053046192535690_);}
	.st9{fill:#0134AA;}
	.st10{fill:url(#SVGID_00000118371456041500511520000002027179110573305781_);}
	.st11{fill:url(#SVGID_00000111902101069242998670000000191379732601914784_);}
	.st12{fill:url(#SVGID_00000037655214565981085610000008247315687119095960_);}
	.st13{fill:url(#SVGID_00000181808078562106490480000013547434556427484840_);}
	.st14{fill:url(#SVGID_00000079464928341818869560000000841025635098616456_);}
	.st15{fill:url(#SVGID_00000132793948263909341590000015942747922559177858_);}
	.st16{fill:url(#SVGID_00000016052509193371111890000015321092001143826598_);}
	.st17{fill:url(#SVGID_00000109726067610287572580000002927526753700857729_);}
	.st18{fill:url(#SVGID_00000075882899873778270220000015261607128928741532_);}
	.st19{fill:#283889;}
	.st20{fill:#C22726;}
	.st21{fill:url(#SVGID_00000068650745711342954150000005036872030591761057_);}
	.st22{fill:#FCD818;}
	.st23{fill:#F7EFE4;}
	.st24{fill:url(#SVGID_00000024699801212485465940000008076944536024068752_);}
	.st25{fill:#1B1A4F;}
	.st26{fill:#171344;}
	.st27{fill:#244B9D;stroke:#131245;stroke-width:0.5;stroke-miterlimit:10;}
	.st28{fill:url(#SVGID_00000152958739250581139770000009907415140012205209_);}
	.st29{fill:url(#SVGID_00000179603983901173518020000012119109220446138756_);}
	.st30{fill:url(#SVGID_00000027589959355649100400000011413060502632558743_);}
	.st31{fill:#161B44;stroke:#3B71B7;stroke-width:0.25;stroke-miterlimit:10;}
	.st32{fill:url(#SVGID_00000170266589187448075120000006786353525121648818_);}
	.st33{fill:url(#SVGID_00000002371394406386611220000010318201495588588175_);}
	.st34{fill:url(#SVGID_00000060720039257039777620000001135371421481529988_);}
	.st35{fill:url(#SVGID_00000181075915863762208170000000320100715767626122_);}
	.st36{fill:url(#SVGID_00000018214326243973240370000002589514634528313250_);}
	.st37{fill:#252667;}
	.st38{fill:url(#SVGID_00000021812313303983065490000008608021243390579113_);}
	.st39{fill:url(#SVGID_00000065785184859773349960000008403876940470756499_);}
	.st40{fill:url(#SVGID_00000128467135172823069190000009997324275509000377_);}
	.st41{fill:#DBEEFA;}
	.st42{fill:#365AA8;}
	.st43{fill:url(#SVGID_00000118390382573008050090000000731317522638298800_);}
	.st44{fill:url(#SVGID_00000171677395452609703040000004963972016786773666_);}
	.st45{fill:url(#SVGID_00000091000174151070630520000017532010271360925826_);}
	.st46{fill:#E5F1F6;}
	.st47{fill:url(#SVGID_00000060021338568114129310000014686139712967198647_);}
	.st48{fill:url(#SVGID_00000083070032003462737610000003982784596258917289_);}
	.st49{fill:url(#SVGID_00000106121635867434557220000011656247682115571846_);}
	.st50{fill:url(#SVGID_00000168801250327806730450000006181753468698122396_);}
	.st51{fill:url(#SVGID_00000041997896535900244200000003626805913494368935_);}
	.st52{fill:url(#SVGID_00000155856007053906755990000007799993014719097504_);}
	
		.st53{fill:url(#SVGID_00000028311526889676405560000011473453705917488568_);stroke:url(#SVGID_00000052797689183500204590000006943253517890192039_);stroke-width:0.664;stroke-linejoin:round;stroke-miterlimit:10;}
	
		.st54{fill:url(#SVGID_00000105390245504927182620000011943455391718435234_);stroke:url(#SVGID_00000122679924268787313590000016619289569778911895_);stroke-width:0.664;stroke-linejoin:round;stroke-miterlimit:10;}
	.st55{fill:none;stroke:#0E1124;stroke-width:0.332;stroke-linecap:round;stroke-linejoin:round;stroke-miterlimit:10;}
	
		.st56{fill:url(#SVGID_00000152956748063274618580000007564372111015577489_);stroke:url(#SVGID_00000123433243920762834720000000877614614215704206_);stroke-width:0.332;stroke-linecap:round;stroke-linejoin:round;stroke-miterlimit:10;}
	
		.st57{fill:url(#SVGID_00000174577485034205430460000011725032237683293065_);stroke:url(#SVGID_00000010991662911936349340000008736336632020535453_);stroke-width:0.332;stroke-linecap:round;stroke-linejoin:round;stroke-miterlimit:10;}
</style>
<rect y="0" class="st0" width="618.38" height="347.74"/>
<radialGradient id="SVGID_1_" cx="92.8626" cy="1239.563" r="140.4868" gradientTransform="matrix(0.9969 -0.0593 0.0636 0.6059 -26.9309 -610.4528)" gradientUnits="userSpaceOnUse">
	<stop  offset="2.492013e-07" style="stop-color:#2777BD"/>
	<stop  offset="0.1246" style="stop-color:#075CF3"/>
	<stop  offset="0.2303" style="stop-color:#064AC9"/>
	<stop  offset="0.3554" style="stop-color:#04399E"/>
	<stop  offset="0.4826" style="stop-color:#032A7A"/>
	<stop  offset="0.6103" style="stop-color:#021F5E"/>
	<stop  offset="0.7386" style="stop-color:#02164B"/>
	<stop  offset="0.8679" style="stop-color:#01123F"/>
	<stop  offset="1" style="stop-color:#01103B"/>
</radialGradient>
<ellipse class="st1" cx="161.64" cy="147.44" rx="155.09" ry="104.03"/>
<g>
	<path class="st2" d="M301.38,201.58h-2.02v-3.09h2.02v-6.93h7.9c2.47,0,4.33,0.83,5.58,2.49c1.11,1.46,1.68,3.47,1.69,6.03
		c0.02,2.38-0.48,4.41-1.5,6.1c-1.3,2.18-3.27,3.26-5.93,3.26h-7.75v-7.86L301.38,201.58L301.38,201.58z M305.04,194.66v3.84h4.14
		v3.09h-4.14v4.78h3.64c1.46,0,2.54-0.67,3.24-2.02c0.55-1.05,0.82-2.38,0.82-3.99c0-3.8-1.37-5.71-4.11-5.71h-3.59L305.04,194.66
		L305.04,194.66z"/>
	<path class="st2" d="M329.8,199.69v7.18c0,1.2,0.26,1.88,0.77,2.07v0.52h-3.76c-0.13-0.45-0.24-0.97-0.32-1.57
		c-0.53,0.58-1.05,1-1.54,1.27c-0.78,0.42-1.69,0.63-2.74,0.65c-1.2,0.02-2.17-0.32-2.92-1.02s-1.12-1.64-1.12-2.84
		c0-2.44,1.29-3.85,3.86-4.24l3.14-0.47c0.8-0.12,1.2-0.46,1.22-1.05c0.03-1.03-0.73-1.54-2.29-1.54c-1.26,0-1.98,0.62-2.14,1.84
		h-3.36c0.18-1.83,0.88-3.11,2.09-3.84c0.86-0.51,2.14-0.78,3.84-0.8c1.45-0.02,2.63,0.25,3.56,0.8
		C329.23,197.32,329.8,198.33,329.8,199.69z M325.82,192.64h1.02c-0.07,0.73-0.36,1.29-0.87,1.68s-1.15,0.59-1.92,0.59
		c-0.71,0-1.31-0.2-1.78-0.61s-0.71-0.96-0.71-1.66h1.02c0.18,0.71,0.7,1.08,1.54,1.1C325.09,193.77,325.65,193.41,325.82,192.64z
		 M326.39,204.7v-1.69c-0.33,0.28-1.16,0.53-2.47,0.75c-1.48,0.23-2.23,0.89-2.27,1.97c-0.02,0.48,0.13,0.86,0.44,1.15
		c0.31,0.28,0.7,0.43,1.18,0.45c0.8,0.02,1.51-0.22,2.15-0.71S326.39,205.48,326.39,204.7z"/>
	<path class="st2" d="M344.9,200.29v9.17h-3.49v-8.05c0-0.75-0.1-1.3-0.3-1.67c-0.35-0.63-1-0.95-1.97-0.95
		c-0.88,0-1.56,0.29-2.03,0.86s-0.71,1.31-0.71,2.21v7.6h-3.49V196.2h3.31v1.94c0.92-1.53,2.26-2.29,4.02-2.29
		c1.42,0,2.55,0.39,3.39,1.17C344.48,197.81,344.9,198.89,344.9,200.29z"/>
	<path class="st2" d="M357.01,196.2h3.31v12.56c0,1.74-0.3,3.05-0.9,3.91c-1.01,1.46-2.95,2.19-5.8,2.19c-1.46,0-2.72-0.3-3.76-0.9
		c-1.28-0.71-1.95-1.74-2.02-3.09h3.79c0.13,0.56,0.44,0.95,0.92,1.15c0.32,0.13,0.82,0.2,1.52,0.2c1.84,0,2.77-1.01,2.77-3.04
		v-1.59l-0.05-0.05c-0.75,1.33-1.93,1.99-3.54,1.99c-1.91,0-3.36-0.69-4.36-2.07c-0.9-1.21-1.34-2.81-1.34-4.78
		c0-1.88,0.44-3.44,1.33-4.68c1-1.43,2.41-2.14,4.22-2.14c1.86,0,3.16,0.77,3.92,2.32v-1.98L357.01,196.2L357.01,196.2z
		 M351.13,202.91c0,1,0.21,1.83,0.62,2.49c0.5,0.8,1.21,1.2,2.13,1.2c1.97,0,2.95-1.28,2.95-3.84c0-1.05-0.23-1.93-0.69-2.64
		c-0.53-0.83-1.29-1.25-2.28-1.25s-1.72,0.45-2.18,1.35C351.31,200.91,351.13,201.81,351.13,202.91z"/>
	<path class="st2" d="M374.22,192.62v3.59h2.17v2.49h-2.17v7.16c0,0.48,0.12,0.79,0.37,0.94c0.18,0.08,0.54,0.12,1.07,0.12
		c0.15,0,0.39,0,0.72,0v2.64c-0.73,0.03-1.28,0.05-1.64,0.05h-0.45c-1.18,0-2.04-0.18-2.57-0.55c-0.66-0.43-1-1.2-1-2.32v-8.05
		h-1.79v-2.49h1.79v-3.59h3.5L374.22,192.62L374.22,192.62z"/>
	<path class="st2" d="M382.17,191.39v3.24h-3.49v-3.24H382.17z M378.68,196.2h3.49v13.25h-3.49V196.2z"/>
	<path class="st2" d="M397.49,200.29v9.17H394v-8.05c0-0.75-0.1-1.3-0.3-1.67c-0.35-0.63-1.01-0.95-1.97-0.95
		c-0.88,0-1.56,0.29-2.03,0.86s-0.71,1.31-0.71,2.21v7.6h-3.49V196.2h3.31v1.94c0.92-1.53,2.26-2.29,4.02-2.29
		c1.42,0,2.55,0.39,3.39,1.17C397.08,197.81,397.49,198.89,397.49,200.29z"/>
	<path class="st2" d="M419.79,191.57v17.89h-3.41v-1.67h-0.07c-0.76,1.35-2.04,2.02-3.83,2.02c-1.89,0-3.32-0.75-4.3-2.24
		c-0.84-1.28-1.27-2.91-1.27-4.88c0-1.88,0.44-3.44,1.33-4.68c1-1.43,2.4-2.14,4.21-2.14c1.67,0,2.96,0.69,3.86,2.07v-6.35h3.48
		V191.57z M410.5,202.93c0,1.06,0.21,1.95,0.63,2.67c0.52,0.9,1.27,1.35,2.25,1.35c1.03,0,1.83-0.39,2.38-1.17
		c0.48-0.68,0.73-1.56,0.73-2.64c0-2.84-1-4.26-3-4.26C411.49,198.87,410.5,200.22,410.5,202.93z"/>
	<path class="st2" d="M430.7,205.57h3.59c-0.4,1.38-1.11,2.42-2.13,3.14c-1.02,0.71-2.25,1.08-3.7,1.1
		c-4.37,0.03-6.57-2.38-6.6-7.25c-0.02-1.46,0.31-2.77,1-3.94c1.06-1.84,2.85-2.76,5.36-2.76c2.14,0,3.75,0.71,4.81,2.12
		c0.95,1.25,1.42,2.97,1.42,5.18v0.62h-9.09c0.18,2.16,1.22,3.24,3.11,3.24C429.66,207.02,430.41,206.53,430.7,205.57z
		 M430.07,190.3h0.99c-0.15,1.23-0.71,1.86-1.68,1.89c-0.4,0.02-0.79-0.08-1.19-0.3c-0.64-0.23-1.01-0.35-1.11-0.35
		c-0.33,0-0.57,0.24-0.72,0.72h-1.01c0.25-1.31,0.88-1.97,1.9-1.97c0.21,0,0.58,0.12,1.11,0.35c0.33,0.15,0.65,0.24,0.96,0.27
		C429.72,190.92,429.97,190.71,430.07,190.3z M429.13,192.57l1.79,2.29h-1.77l-1.01-1.29l-1.01,1.29h-1.79l1.84-2.29H429.13z
		 M425.45,201.51h5.41c-0.05-0.81-0.31-1.48-0.78-2s-1.11-0.78-1.91-0.78C426.55,198.72,425.65,199.65,425.45,201.51z"/>
	<path class="st2" d="M455.79,191.57v17.89h-3.41v-1.67h-0.08c-0.76,1.35-2.04,2.02-3.83,2.02c-1.89,0-3.32-0.75-4.3-2.24
		c-0.84-1.28-1.27-2.91-1.27-4.88c0-1.88,0.44-3.44,1.33-4.68c1-1.43,2.41-2.14,4.21-2.14c1.67,0,2.96,0.69,3.86,2.07v-6.35h3.49
		V191.57z M446.5,202.93c0,1.06,0.21,1.95,0.63,2.67c0.52,0.9,1.27,1.35,2.25,1.35c1.03,0,1.83-0.39,2.38-1.17
		c0.48-0.68,0.73-1.56,0.73-2.64c0-2.84-1-4.26-3-4.26C447.49,198.87,446.5,200.22,446.5,202.93z"/>
	<path class="st2" d="M469.62,199.69v7.18c0,1.2,0.26,1.88,0.77,2.07v0.52h-3.76c-0.13-0.45-0.24-0.97-0.32-1.57
		c-0.53,0.58-1.05,1-1.54,1.27c-0.78,0.42-1.69,0.63-2.74,0.65c-1.2,0.02-2.17-0.32-2.92-1.02s-1.12-1.64-1.12-2.84
		c0-2.44,1.29-3.85,3.86-4.24l3.14-0.47c0.8-0.12,1.2-0.46,1.22-1.05c0.03-1.03-0.73-1.54-2.29-1.54c-1.26,0-1.98,0.62-2.14,1.84
		h-3.36c0.18-1.83,0.88-3.11,2.09-3.84c0.86-0.51,2.14-0.78,3.84-0.8c1.44-0.02,2.63,0.25,3.56,0.8
		C469.05,197.32,469.62,198.33,469.62,199.69z M463.04,194.86l-2.57-2.54h2.69l1.64,2.54H463.04z M466.21,204.7v-1.69
		c-0.33,0.28-1.15,0.53-2.47,0.75c-1.48,0.23-2.23,0.89-2.27,1.97c-0.02,0.48,0.13,0.86,0.44,1.15c0.31,0.28,0.7,0.43,1.18,0.45
		c0.8,0.02,1.52-0.22,2.16-0.71C465.89,206.12,466.21,205.48,466.21,204.7z"/>
	<path class="st2" d="M484.72,200.29v9.17h-3.49v-8.05c0-0.75-0.1-1.3-0.3-1.67c-0.35-0.63-1.01-0.95-1.97-0.95
		c-0.88,0-1.56,0.29-2.03,0.86s-0.71,1.31-0.71,2.21v7.6h-3.49V196.2h3.31v1.94c0.92-1.53,2.26-2.29,4.02-2.29
		c1.42,0,2.55,0.39,3.39,1.17C484.3,197.81,484.72,198.89,484.72,200.29z"/>
	<path class="st2" d="M496.83,196.2h3.31v12.56c0,1.74-0.3,3.05-0.9,3.91c-1.01,1.46-2.95,2.19-5.8,2.19c-1.46,0-2.72-0.3-3.76-0.9
		c-1.28-0.71-1.95-1.74-2.02-3.09h3.79c0.13,0.56,0.44,0.95,0.92,1.15c0.32,0.13,0.82,0.2,1.52,0.2c1.84,0,2.77-1.01,2.77-3.04
		v-1.59l-0.05-0.05c-0.75,1.33-1.93,1.99-3.54,1.99c-1.91,0-3.36-0.69-4.36-2.07c-0.9-1.21-1.34-2.81-1.34-4.78
		c0-1.88,0.44-3.44,1.33-4.68c1-1.43,2.41-2.14,4.22-2.14c1.86,0,3.16,0.77,3.92,2.32v-1.98L496.83,196.2L496.83,196.2z
		 M490.95,202.91c0,1,0.21,1.83,0.62,2.49c0.5,0.8,1.21,1.2,2.13,1.2c1.97,0,2.95-1.28,2.95-3.84c0-1.05-0.23-1.93-0.69-2.64
		c-0.53-0.83-1.29-1.25-2.28-1.25s-1.72,0.45-2.18,1.35C491.13,200.91,490.95,201.81,490.95,202.91z"/>
	<path class="st2" d="M318.16,222.51v3.59h2.17v2.49h-2.17v7.16c0,0.48,0.12,0.79,0.37,0.94c0.18,0.08,0.54,0.12,1.07,0.12
		c0.15,0,0.39,0,0.72,0v2.64c-0.73,0.03-1.28,0.05-1.64,0.05h-0.45c-1.18,0-2.03-0.18-2.57-0.55c-0.67-0.43-1-1.21-1-2.32v-8.05
		h-1.79v-2.49h1.79v-3.59h3.5L318.16,222.51L318.16,222.51z"/>
	<path class="st2" d="M323.51,224.76l-2.57-2.54h2.69l1.64,2.54H323.51z M322.64,226.1h3.49v13.25h-3.49V226.1z"/>
	<path class="st2" d="M348.4,230.19v9.17h-3.49v-8.05c0-1.74-0.63-2.62-1.89-2.62c-1.58,0-2.37,0.91-2.37,2.72v7.95h-3.49v-7.97
		c0-0.85-0.08-1.44-0.25-1.77c-0.32-0.61-0.93-0.92-1.84-0.92c-1.44,0-2.17,0.86-2.17,2.59v8.07h-3.49V226.1h3.34v1.94h0.05
		c0.78-1.53,2.03-2.29,3.76-2.29c0.9,0,1.61,0.16,2.14,0.47c0.53,0.32,1.05,0.86,1.54,1.64c0.98-1.41,2.16-2.12,3.54-2.12
		c1.41,0,2.53,0.39,3.36,1.17C347.99,227.7,348.4,228.79,348.4,230.19z"/>
	<path class="st2" d="M370.63,223.73h1.17v1.25h-1.17v14.38h-3.41v-1.67c-0.76,1.35-2.06,2.02-3.89,2.02
		c-1.89,0-3.33-0.75-4.31-2.24c-0.83-1.26-1.25-2.89-1.27-4.88c-0.02-1.93,0.41-3.5,1.28-4.71c0.99-1.39,2.4-2.1,4.26-2.12
		c1.64-0.02,2.92,0.67,3.86,2.07v-2.84h-2.82v-1.25h2.82v-2.27h3.49L370.63,223.73L370.63,223.73z M361.33,232.83
		c-0.02,1.06,0.19,1.96,0.62,2.69c0.5,0.88,1.25,1.32,2.25,1.32c1.05,0,1.84-0.39,2.38-1.17c0.47-0.66,0.71-1.54,0.73-2.64
		c0.03-2.84-0.97-4.26-3-4.26C362.36,228.77,361.37,230.12,361.33,232.83z"/>
	<path class="st2" d="M384.48,229.59v7.17c0,1.2,0.26,1.89,0.77,2.07v0.52h-3.76c-0.13-0.45-0.24-0.97-0.32-1.57
		c-0.53,0.58-1.05,1.01-1.54,1.27c-0.78,0.41-1.69,0.63-2.74,0.65c-1.2,0.02-2.17-0.32-2.92-1.02s-1.12-1.64-1.12-2.84
		c0-2.44,1.29-3.85,3.86-4.24l3.14-0.47c0.8-0.12,1.2-0.46,1.22-1.05c0.03-1.03-0.73-1.54-2.29-1.54c-1.26,0-1.98,0.61-2.14,1.84
		h-3.36c0.18-1.83,0.88-3.11,2.09-3.84c0.86-0.51,2.14-0.78,3.84-0.8c1.44-0.02,2.63,0.25,3.56,0.8
		C383.9,227.21,384.48,228.23,384.48,229.59z M379.69,222.51l1.79,2.29h-1.77l-1.01-1.29l-0.97,1.29h-1.8l1.79-2.29H379.69z
		 M381.06,234.6v-1.69c-0.33,0.28-1.15,0.53-2.47,0.75c-1.48,0.23-2.23,0.89-2.27,1.97c-0.02,0.48,0.13,0.86,0.44,1.15
		c0.31,0.28,0.7,0.43,1.18,0.45c0.8,0.02,1.52-0.22,2.16-0.71C380.74,236.01,381.06,235.38,381.06,234.6z M385.25,221.22l-2.32,2.27
		h-1.59l1.49-2.27H385.25z"/>
	<path class="st2" d="M391.53,222.51v3.59h2.17v2.49h-2.17v7.16c0,0.48,0.12,0.79,0.37,0.94c0.18,0.08,0.54,0.12,1.07,0.12
		c0.15,0,0.39,0,0.72,0v2.64c-0.73,0.03-1.28,0.05-1.64,0.05h-0.45c-1.18,0-2.04-0.18-2.57-0.55c-0.66-0.43-1-1.21-1-2.32v-8.05
		h-1.79v-2.49h1.79v-3.59h3.5L391.53,222.51L391.53,222.51z"/>
	<path class="st2" d="M413.55,229.59v7.17c0,1.2,0.26,1.89,0.77,2.07v0.52h-3.76c-0.17-0.5-0.27-1.02-0.32-1.57
		c-1.25,1.28-2.67,1.92-4.29,1.92c-1.21,0-2.19-0.34-2.93-1.03s-1.11-1.63-1.11-2.83c0-2.44,1.29-3.85,3.86-4.24l3.14-0.47
		c0.81-0.12,1.22-0.46,1.22-1.05c0-1.03-0.76-1.54-2.29-1.54c-1.26,0-1.98,0.61-2.14,1.84h-3.36c0.17-1.71,0.78-2.93,1.84-3.66
		c0.93-0.65,2.29-0.97,4.09-0.97c1.45,0,2.63,0.27,3.56,0.82C412.98,227.24,413.55,228.24,413.55,229.59z M410.14,234.6v-1.69
		c-0.37,0.28-1.16,0.52-2.37,0.72c-0.76,0.13-1.31,0.31-1.64,0.52c-0.48,0.32-0.72,0.8-0.72,1.47c0,0.48,0.15,0.87,0.45,1.16
		c0.3,0.29,0.69,0.44,1.17,0.44c0.83,0,1.56-0.24,2.18-0.71C409.83,236.03,410.14,235.39,410.14,234.6z"/>
	<path class="st2" d="M428.65,230.19v9.17h-3.49v-8.05c0-0.75-0.1-1.3-0.3-1.67c-0.35-0.63-1.01-0.95-1.97-0.95
		c-0.88,0-1.56,0.29-2.03,0.86s-0.71,1.31-0.71,2.21v7.6h-3.49V226.1h3.31v1.94c0.92-1.53,2.26-2.29,4.02-2.29
		c1.42,0,2.55,0.39,3.39,1.17C428.23,227.7,428.65,228.79,428.65,230.19z"/>
	<path class="st2" d="M442.75,222.51v3.59h2.17v2.49h-2.17v7.16c0,0.48,0.12,0.79,0.37,0.94c0.18,0.08,0.54,0.12,1.07,0.12
		c0.15,0,0.39,0,0.72,0v2.64c-0.73,0.03-1.28,0.05-1.64,0.05h-0.45c-1.18,0-2.03-0.18-2.57-0.55c-0.67-0.43-1-1.21-1-2.32v-8.05
		h-1.79v-2.49h1.79v-3.59h3.5L442.75,222.51L442.75,222.51z"/>
	<path class="st2" d="M457.85,229.59v7.17c0,1.2,0.26,1.89,0.77,2.07v0.52h-3.76c-0.13-0.45-0.24-0.97-0.32-1.57
		c-0.53,0.58-1.05,1.01-1.54,1.27c-0.78,0.41-1.69,0.63-2.74,0.65c-1.2,0.02-2.17-0.32-2.92-1.02s-1.12-1.64-1.12-2.84
		c0-2.44,1.29-3.85,3.86-4.24l3.14-0.47c0.8-0.12,1.2-0.46,1.22-1.05c0.03-1.03-0.73-1.54-2.29-1.54c-1.26,0-1.98,0.61-2.14,1.84
		h-3.36c0.18-1.83,0.88-3.11,2.09-3.84c0.86-0.51,2.14-0.78,3.84-0.8c1.45-0.02,2.63,0.25,3.56,0.8
		C457.28,227.21,457.85,228.23,457.85,229.59z M453.06,222.51l1.79,2.29h-1.77l-1.01-1.29l-0.97,1.29h-1.8l1.79-2.29H453.06z
		 M454.44,234.6v-1.69c-0.33,0.28-1.16,0.53-2.47,0.75c-1.48,0.23-2.23,0.89-2.27,1.97c-0.02,0.48,0.13,0.86,0.44,1.15
		c0.31,0.28,0.7,0.43,1.18,0.45c0.8,0.02,1.51-0.22,2.15-0.71C454.12,236.01,454.44,235.38,454.44,234.6z"/>
	<path class="st2" d="M479.92,230.19v9.17h-3.49v-8.05c0-1.74-0.63-2.62-1.89-2.62c-1.58,0-2.37,0.91-2.37,2.72v7.95h-3.49v-7.97
		c0-0.85-0.08-1.44-0.25-1.77c-0.32-0.61-0.93-0.92-1.84-0.92c-1.45,0-2.17,0.86-2.17,2.59v8.07h-3.49V226.1h3.34v1.94h0.05
		c0.78-1.53,2.03-2.29,3.76-2.29c0.9,0,1.61,0.16,2.14,0.47c0.53,0.32,1.05,0.86,1.54,1.64c0.98-1.41,2.16-2.12,3.54-2.12
		c1.41,0,2.53,0.39,3.36,1.17C479.51,227.7,479.92,228.79,479.92,230.19z"/>
	<path class="st2" d="M486.82,235.72v3.64h-3.74v-3.64H486.82z"/>
</g>
<g>
	<g>
		
			<linearGradient id="SVGID_00000131342308726797034110000000311800860773234363_" gradientUnits="userSpaceOnUse" x1="123.29" y1="647.14" x2="190.54" y2="647.14" gradientTransform="matrix(1 0 0 1 0 -494)">
			<stop  offset="0" style="stop-color:#0229A0"/>
			<stop  offset="0.0996" style="stop-color:#0330A4"/>
			<stop  offset="0.2495" style="stop-color:#0545AD"/>
			<stop  offset="0.4309" style="stop-color:#0967BD"/>
			<stop  offset="0.6371" style="stop-color:#0E96D4"/>
			<stop  offset="0.8612" style="stop-color:#14D1F0"/>
			<stop  offset="0.9646" style="stop-color:#17EFFE"/>
		</linearGradient>
		<polygon style="fill:url(#SVGID_00000131342308726797034110000000311800860773234363_);" points="190.54,145.05 190.54,163.43 
			173.85,176.2 153.5,191.77 131.36,214.08 123.29,208.41 129.06,142.21 129.06,117.9 157.6,93.38 158.97,92.2 158.97,104.71 
			161.41,106.68 173.52,116.46 173.52,134.67 174.63,135.35 		"/>
	</g>
	<g>
		
			<linearGradient id="SVGID_00000126303707651118882050000015015389513556135311_" gradientUnits="userSpaceOnUse" x1="179.01" y1="671.89" x2="179.01" y2="627.9901" gradientTransform="matrix(1 0 0 1 0 -494)">
			<stop  offset="0" style="stop-color:#0229A0"/>
			<stop  offset="0.168" style="stop-color:#0230A7"/>
			<stop  offset="0.4204" style="stop-color:#0445BB"/>
			<stop  offset="0.7244" style="stop-color:#0566DC"/>
			<stop  offset="0.9646" style="stop-color:#0786FB"/>
		</linearGradient>
		<polygon style="fill:url(#SVGID_00000126303707651118882050000015015389513556135311_);" points="190.54,145.05 190.54,163.43 
			173.85,176.2 167.48,177.89 168.88,133.99 174.15,135.41 174.63,135.35 		"/>
	</g>
	<polygon class="st5" points="134.2,130.25 134.2,135.01 146.97,128.12 146.97,123.27 	"/>
	<polygon class="st5" points="134.2,138.25 134.2,142.5 146.97,136.03 146.97,131.76 	"/>
	<polygon class="st5" points="136.79,145.63 147.18,140.12 147.18,144.59 141.08,147.33 	"/>
	
		<linearGradient id="SVGID_00000173882106079448276830000002051991606543345340_" gradientUnits="userSpaceOnUse" x1="152.63" y1="677.3101" x2="152.63" y2="590.92" gradientTransform="matrix(1 0 0 1 0 -494)">
		<stop  offset="0" style="stop-color:#44BEEE"/>
		<stop  offset="0.2375" style="stop-color:#78CFF1"/>
		<stop  offset="0.4827" style="stop-color:#A6DFF4"/>
		<stop  offset="0.7005" style="stop-color:#C8EAF6"/>
		<stop  offset="0.8803" style="stop-color:#DDF1F8"/>
		<stop  offset="1" style="stop-color:#E4F3F8"/>
	</linearGradient>
	<polygon style="fill:url(#SVGID_00000173882106079448276830000002051991606543345340_);" points="151.78,98.38 151.78,183.31 
		153.48,181.26 153.48,96.92 	"/>
	
		<linearGradient id="SVGID_00000006704601974387746430000009084525715263089577_" gradientUnits="userSpaceOnUse" x1="159.515" y1="671.4301" x2="159.515" y2="586.2" gradientTransform="matrix(1 0 0 1 0 -494)">
		<stop  offset="0" style="stop-color:#44BEEE"/>
		<stop  offset="0.2375" style="stop-color:#78CFF1"/>
		<stop  offset="0.4827" style="stop-color:#A6DFF4"/>
		<stop  offset="0.7005" style="stop-color:#C8EAF6"/>
		<stop  offset="0.8803" style="stop-color:#DDF1F8"/>
		<stop  offset="1" style="stop-color:#E4F3F8"/>
	</linearGradient>
	<polygon style="fill:url(#SVGID_00000006704601974387746430000009084525715263089577_);" points="161.43,107.2 161.43,175.8 
		157.6,177.43 157.6,93.38 158.97,92.2 158.97,104.71 161.41,106.68 	"/>
	
		<linearGradient id="SVGID_00000157290337534460864160000006807750920678943127_" gradientUnits="userSpaceOnUse" x1="178.415" y1="667.73" x2="178.415" y2="624.92" gradientTransform="matrix(1 0 0 1 0 -494)">
		<stop  offset="0" style="stop-color:#44BEEE"/>
		<stop  offset="0.2375" style="stop-color:#78CFF1"/>
		<stop  offset="0.4827" style="stop-color:#A6DFF4"/>
		<stop  offset="0.7005" style="stop-color:#C8EAF6"/>
		<stop  offset="0.8803" style="stop-color:#DDF1F8"/>
		<stop  offset="1" style="stop-color:#E4F3F8"/>
	</linearGradient>
	<polygon style="fill:url(#SVGID_00000157290337534460864160000006807750920678943127_);" points="190.54,145.11 170.03,135.01 
		170.03,172.14 166.29,173.73 166.29,130.92 183.07,140.5 	"/>
	<g>
		<polygon class="st9" points="174.29,170.33 174.29,137.13 177,138.44 177,168.96 		"/>
	</g>
	<g>
		<polygon class="st9" points="179.56,168.1 179.56,139.7 182.27,141.04 182.27,166.94 		"/>
	</g>
	<g>
		<polygon class="st9" points="184.68,165.92 184.68,142.22 187.09,143.41 187.09,164.9 		"/>
	</g>
	
		<linearGradient id="SVGID_00000097458077983011648730000005687578898075876225_" gradientUnits="userSpaceOnUse" x1="144.46" y1="688.84" x2="144.46" y2="633.4174" gradientTransform="matrix(1 0 0 1 0 -494)">
		<stop  offset="0" style="stop-color:#44BEEE"/>
		<stop  offset="0.158" style="stop-color:#48BFEE"/>
		<stop  offset="0.3164" style="stop-color:#54C3EF"/>
		<stop  offset="0.475" style="stop-color:#68CAF0"/>
		<stop  offset="0.634" style="stop-color:#84D3F2"/>
		<stop  offset="0.7931" style="stop-color:#A9DFF4"/>
		<stop  offset="0.9504" style="stop-color:#D5EEF7"/>
		<stop  offset="1" style="stop-color:#E4F3F8"/>
	</linearGradient>
	<polygon style="fill:url(#SVGID_00000097458077983011648730000005687578898075876225_);" points="142.8,153.39 146.12,151.52 
		146.12,189.15 146.12,191.44 142.8,194.84 	"/>
	<polygon class="st5" points="134.2,121.9 134.2,126.59 146.97,118.16 146.97,113.31 	"/>
	
		<linearGradient id="SVGID_00000036937232352022595820000007051806199198629054_" gradientUnits="userSpaceOnUse" x1="110.46" y1="708.47" x2="110.46" y2="608.186" gradientTransform="matrix(1 0 0 1 0 -494)">
		<stop  offset="0.0519" style="stop-color:#061661"/>
		<stop  offset="0.3086" style="stop-color:#043D9D"/>
		<stop  offset="0.6759" style="stop-color:#007AF9"/>
		<stop  offset="1" style="stop-color:#0ABCFA"/>
	</linearGradient>
	<polygon style="fill:url(#SVGID_00000036937232352022595820000007051806199198629054_);" points="78.12,214.47 78.12,153.53 
		78.12,152.63 90.12,147.6 90.12,140.46 113.01,128.11 125.86,133.39 125.86,140.8 126.37,141.02 126.41,141.04 142.8,148.28 
		142.8,193.26 142.8,208.41 	"/>
	
		<linearGradient id="SVGID_00000150815456408659941160000008184191134429649826_" gradientUnits="userSpaceOnUse" x1="112.9225" y1="622.1975" x2="126.0575" y2="635.3326" gradientTransform="matrix(1 0 0 1 0 -494)">
		<stop  offset="0" style="stop-color:#E4F3F8"/>
		<stop  offset="0.2695" style="stop-color:#9BE0FA"/>
		<stop  offset="0.5235" style="stop-color:#5ED0FC"/>
		<stop  offset="0.7374" style="stop-color:#32C5FE"/>
		<stop  offset="0.9029" style="stop-color:#17BEFF"/>
		<stop  offset="1" style="stop-color:#0DBBFF"/>
	</linearGradient>
	<polygon style="fill:url(#SVGID_00000150815456408659941160000008184191134429649826_);" points="126.37,141.02 113.01,136.03 
		113.01,128.11 125.86,133.39 125.86,140.8 	"/>
	
		<linearGradient id="SVGID_00000152945730326500611370000011421001940339909760_" gradientUnits="userSpaceOnUse" x1="97.505" y1="702.42" x2="97.505" y2="643.8201" gradientTransform="matrix(1 0 0 1 0 -494)">
		<stop  offset="0" style="stop-color:#44BEEE"/>
		<stop  offset="0.2375" style="stop-color:#78CFF1"/>
		<stop  offset="0.4827" style="stop-color:#A6DFF4"/>
		<stop  offset="0.7005" style="stop-color:#C8EAF6"/>
		<stop  offset="0.8803" style="stop-color:#DDF1F8"/>
		<stop  offset="1" style="stop-color:#E4F3F8"/>
	</linearGradient>
	<polygon style="fill:url(#SVGID_00000152945730326500611370000011421001940339909760_);" points="96.34,208.42 96.34,150.84 
		98.67,149.82 98.67,207.68 	"/>
	
		<linearGradient id="SVGID_00000070797869126425996750000001435075677069596077_" gradientUnits="userSpaceOnUse" x1="104.425" y1="700.85" x2="104.425" y2="641.27" gradientTransform="matrix(1 0 0 1 0 -494)">
		<stop  offset="0" style="stop-color:#44BEEE"/>
		<stop  offset="0.2375" style="stop-color:#78CFF1"/>
		<stop  offset="0.4827" style="stop-color:#A6DFF4"/>
		<stop  offset="0.7005" style="stop-color:#C8EAF6"/>
		<stop  offset="0.8803" style="stop-color:#DDF1F8"/>
		<stop  offset="1" style="stop-color:#E4F3F8"/>
	</linearGradient>
	<polygon style="fill:url(#SVGID_00000070797869126425996750000001435075677069596077_);" points="103.03,206.85 103.03,148.29 
		105.82,147.27 105.82,206.13 	"/>
	
		<linearGradient id="SVGID_00000008828727074277997840000008895055015900846521_" gradientUnits="userSpaceOnUse" x1="108.31" y1="698.97" x2="108.31" y2="633.48" gradientTransform="matrix(1 0 0 1 0 -494)">
		<stop  offset="0" style="stop-color:#44BEEE"/>
		<stop  offset="0.2375" style="stop-color:#78CFF1"/>
		<stop  offset="0.4827" style="stop-color:#A6DFF4"/>
		<stop  offset="0.7005" style="stop-color:#C8EAF6"/>
		<stop  offset="0.8803" style="stop-color:#DDF1F8"/>
		<stop  offset="1" style="stop-color:#E4F3F8"/>
	</linearGradient>
	<polygon style="fill:url(#SVGID_00000008828727074277997840000008895055015900846521_);" points="138.5,150.46 138.5,198.18 
		136.09,200.62 136.09,151.22 113.99,142.54 113.99,204.97 110.46,204.97 110.46,141.65 78.12,153.53 78.12,152.63 90.12,147.6 
		111.69,139.48 	"/>
	
		<linearGradient id="SVGID_00000118375261245591387330000004068103334291572656_" gradientUnits="userSpaceOnUse" x1="91.17" y1="704.26" x2="91.17" y2="645.9901" gradientTransform="matrix(1 0 0 1 0 -494)">
		<stop  offset="0" style="stop-color:#44BEEE"/>
		<stop  offset="0.2375" style="stop-color:#78CFF1"/>
		<stop  offset="0.4827" style="stop-color:#A6DFF4"/>
		<stop  offset="0.7005" style="stop-color:#C8EAF6"/>
		<stop  offset="0.8803" style="stop-color:#DDF1F8"/>
		<stop  offset="1" style="stop-color:#E4F3F8"/>
	</linearGradient>
	<polygon style="fill:url(#SVGID_00000118375261245591387330000004068103334291572656_);" points="89.93,210.26 89.93,152.88 
		92.41,151.99 92.41,209.37 	"/>
	
		<linearGradient id="SVGID_00000020367307206844203290000004897524377104620435_" gradientUnits="userSpaceOnUse" x1="85.35" y1="706.1" x2="85.35" y2="648.67" gradientTransform="matrix(1 0 0 1 0 -494)">
		<stop  offset="0" style="stop-color:#44BEEE"/>
		<stop  offset="0.2375" style="stop-color:#78CFF1"/>
		<stop  offset="0.4827" style="stop-color:#A6DFF4"/>
		<stop  offset="0.7005" style="stop-color:#C8EAF6"/>
		<stop  offset="0.8803" style="stop-color:#DDF1F8"/>
		<stop  offset="1" style="stop-color:#E4F3F8"/>
	</linearGradient>
	<polygon style="fill:url(#SVGID_00000020367307206844203290000004897524377104620435_);" points="84.41,212.1 84.41,155.31 
		86.29,154.67 86.29,211.45 	"/>
	
		<linearGradient id="SVGID_00000049220324142581905820000003955238610813952922_" gradientUnits="userSpaceOnUse" x1="54.45" y1="719.895" x2="264.75" y2="719.895" gradientTransform="matrix(1 0 0 1 0 -494)">
		<stop  offset="0.3462" style="stop-color:#161648"/>
		<stop  offset="0.9131" style="stop-color:#0E0E24"/>
	</linearGradient>
	<path style="fill:url(#SVGID_00000049220324142581905820000003955238610813952922_);" d="M258.79,232.74l5.96,4.59l-68.77-0.46
		c0,0-34.42-7.13-82.98-5.44c-17.53,0.77-58.55,5.09-58.55,5.09l37.95-15.21l56.06-6.85C148.48,214.47,232.48,223.76,258.79,232.74z
		"/>
	<g>
		<path class="st19" d="M226.61,228.27l-7.32,4.06c0,0-13.39,0.45-16.52,1.3c-8.5-4.51-27.22-14.47-51.05-14.89
			c-15.4-0.34-46.51-0.34-61.81,4.77c-5.26,1.28-26.62,10.13-26.62,10.13l-21.32-0.28c0,0,13.6-10.82,40.72-19.29
			c25.4-7.2,78.38-11.94,110.43,0.38C224.27,226.27,226.61,228.27,226.61,228.27z"/>
	</g>
	<g>
		<g>
			<polygon class="st20" points="239.05,173.86 239.05,190.07 232.25,182.78 227.69,177.89 228.07,175.22 228.09,175.09 
				232.27,173.22 233.18,172.71 			"/>
			<g>
				
					<linearGradient id="SVGID_00000154396855231775741950000013443904166889839026_" gradientUnits="userSpaceOnUse" x1="232.5" y1="675.21" x2="238.8" y2="675.21" gradientTransform="matrix(1 0 0 1 0 -494)">
					<stop  offset="0" style="stop-color:#FAAB18"/>
					<stop  offset="0.6692" style="stop-color:#FBC818"/>
					<stop  offset="1" style="stop-color:#FCD818"/>
				</linearGradient>
				<polygon style="fill:url(#SVGID_00000154396855231775741950000013443904166889839026_);" points="232.5,182.68 232.5,173.56 
					232.51,173.37 233.22,172.98 238.8,174.07 238.8,189.44 				"/>
				<path class="st22" d="M233.26,173.24l5.29,1.04v14.53l-5.8-6.22v-8.99v-0.07L233.26,173.24 M233.18,172.71l-0.91,0.51
					l-0.02,0.34v9.22l6.8,7.29v-16.21L233.18,172.71L233.18,172.71z"/>
			</g>
			<polygon class="st23" points="232.27,173.22 232.27,173.85 228.07,175.22 228.09,175.09 			"/>
		</g>
		<g>
			<g>
				
					<linearGradient id="SVGID_00000143601794010683837250000014770596706175484583_" gradientUnits="userSpaceOnUse" x1="195.055" y1="702.41" x2="195.055" y2="649.3101" gradientTransform="matrix(1 0 0 1 0 -494)">
					<stop  offset="0" style="stop-color:#F05B22"/>
					<stop  offset="0.2131" style="stop-color:#F37820"/>
					<stop  offset="0.6731" style="stop-color:#FAC21A"/>
					<stop  offset="0.803" style="stop-color:#FCD818"/>
				</linearGradient>
				<polygon style="fill:url(#SVGID_00000143601794010683837250000014770596706175484583_);" points="257.35,208.41 250.84,208.41 
					247.52,207.14 228.63,186.33 209.65,164.88 172.33,205.73 169.46,205.3 165.74,204.27 162.74,204.83 161.99,204.97 
					150.18,204.71 136.02,204.4 132.76,204.33 156.5,177.89 209.65,155.31 210.63,156.4 				"/>
			</g>
			<g>
				<polygon class="st25" points="221.48,208.17 172.34,205.48 170.53,204.87 172.49,203.25 210.24,162.57 250.92,208.17 				"/>
				<path class="st26" d="M210.24,162.95l40.13,44.97h-28.86l-49.08-2.68l-1.38-0.46l1.61-1.34c0.02-0.01,0.03-0.03,0.05-0.04
					L210.24,162.95 M210.24,162.2l-37.91,40.85l-2.3,1.91l2.3,0.77l49.15,2.68h30L210.24,162.2L210.24,162.2z"/>
			</g>
			<polygon class="st25" points="241.52,223.48 241.52,199.1 232.24,195.44 232.24,220.42 			"/>
			<polygon class="st27" points="177.52,203.61 209.6,169.99 232.24,195.44 232.24,219.35 174.66,206.47 			"/>
			
				<linearGradient id="SVGID_00000106848656949149459020000006091646422535748244_" gradientUnits="userSpaceOnUse" x1="139.0375" y1="701.4175" x2="182.6125" y2="657.8425" gradientTransform="matrix(1 0 0 1 0 -494)">
				<stop  offset="0.0206" style="stop-color:#CB3727"/>
				<stop  offset="0.4744" style="stop-color:#F05B22"/>
				<stop  offset="0.6138" style="stop-color:#F37820"/>
				<stop  offset="0.915" style="stop-color:#FAC21A"/>
				<stop  offset="1" style="stop-color:#FCD818"/>
			</linearGradient>
			<polygon style="fill:url(#SVGID_00000106848656949149459020000006091646422535748244_);" points="186.29,167.52 152.63,201.65 
				150.18,204.71 136.02,204.4 138.03,201.82 159.52,178.5 			"/>
			
				<linearGradient id="SVGID_00000183932052221608816750000001981682148223455919_" gradientUnits="userSpaceOnUse" x1="161.64" y1="676.39" x2="207.98" y2="676.39" gradientTransform="matrix(1 0 0 1 0 -494)">
				<stop  offset="0.6054" style="stop-color:#FFFFFF"/>
				<stop  offset="0.9814" style="stop-color:#FFFFFF;stop-opacity:0.4"/>
			</linearGradient>
			<polygon style="fill:url(#SVGID_00000183932052221608816750000001981682148223455919_);" points="204.03,162.63 162.66,206.85 
				161.64,206.71 205.07,160.38 207.98,157.93 			"/>
			
				<linearGradient id="SVGID_00000023273964526798701580000009695083481934444711_" gradientUnits="userSpaceOnUse" x1="132.76" y1="676.005" x2="203.65" y2="676.005" gradientTransform="matrix(1 0 0 1 0 -494)">
				<stop  offset="0.4344" style="stop-color:#FDD800"/>
				<stop  offset="0.4843" style="stop-color:#FDDA0C"/>
				<stop  offset="0.5752" style="stop-color:#FDDF2D"/>
				<stop  offset="0.6968" style="stop-color:#FEE762"/>
				<stop  offset="0.8446" style="stop-color:#FEF2AB"/>
				<stop  offset="1" style="stop-color:#FFFFFF"/>
			</linearGradient>
			<polygon style="fill:url(#SVGID_00000023273964526798701580000009695083481934444711_);" points="203.65,159.61 201.84,160.18 
				156.5,177.89 132.76,204.33 136.02,204.4 159.52,178.5 			"/>
		</g>
		<g>
			<path class="st31" d="M209.65,194.13c-0.05,0-0.09-0.01-0.14-0.02l-6.3-1.62c-0.25-0.06-0.43-0.29-0.43-0.55v-8.64
				c0-0.18,0.08-0.35,0.23-0.45c0.1-0.08,0.22-0.11,0.34-0.11c0.05,0,0.1,0.01,0.15,0.02l6.3,1.79c0.24,0.07,0.41,0.29,0.41,0.55
				v8.47c0,0.18-0.08,0.34-0.22,0.45C209.89,194.09,209.77,194.13,209.65,194.13z"/>
			<g>
				
					<linearGradient id="SVGID_00000107578476785076769030000010080421190457554855_" gradientUnits="userSpaceOnUse" x1="206.5" y1="687.2401" x2="206.5" y2="677.64" gradientTransform="matrix(1 0 0 1 0 -494)">
					<stop  offset="0" style="stop-color:#FAAB18"/>
					<stop  offset="0.6692" style="stop-color:#FBC818"/>
					<stop  offset="1" style="stop-color:#FCD818"/>
				</linearGradient>
				<polygon style="fill:url(#SVGID_00000107578476785076769030000010080421190457554855_);" points="203.6,191.75 203.6,183.64 
					209.4,185.29 209.4,193.24 				"/>
				<path class="st22" d="M203.85,183.97l5.3,1.5v7.45l-5.3-1.36V183.97 M203.35,183.31v8.64l6.3,1.62v-8.47L203.35,183.31
					L203.35,183.31z"/>
			</g>
			<path class="st31" d="M217.56,196.22c-0.05,0-0.09-0.01-0.14-0.02l-6.3-1.62c-0.25-0.06-0.43-0.29-0.43-0.55v-8.64
				c0-0.18,0.08-0.35,0.23-0.45c0.1-0.08,0.22-0.11,0.34-0.11c0.05,0,0.1,0.01,0.15,0.02l6.3,1.79c0.24,0.07,0.41,0.29,0.41,0.55
				v8.47c0,0.18-0.08,0.34-0.22,0.45C217.81,196.17,217.69,196.22,217.56,196.22z"/>
			<g>
				
					<linearGradient id="SVGID_00000142154657426480639280000013807277761327891646_" gradientUnits="userSpaceOnUse" x1="214.41" y1="689.33" x2="214.41" y2="679.72" gradientTransform="matrix(1 0 0 1 0 -494)">
					<stop  offset="0" style="stop-color:#FAAB18"/>
					<stop  offset="0.6692" style="stop-color:#FBC818"/>
					<stop  offset="1" style="stop-color:#FCD818"/>
				</linearGradient>
				<polygon style="fill:url(#SVGID_00000142154657426480639280000013807277761327891646_);" points="211.51,193.84 211.51,185.72 
					217.31,187.37 217.31,195.33 				"/>
				<path class="st22" d="M211.76,186.06l5.3,1.5V195l-5.3-1.36V186.06 M211.26,185.39v8.64l6.3,1.62v-8.47L211.26,185.39
					L211.26,185.39z"/>
			</g>
			<path class="st31" d="M209.65,203.62c-0.05,0-0.1-0.01-0.15-0.02l-6.3-1.74c-0.25-0.07-0.42-0.29-0.42-0.55v-8
				c0-0.18,0.08-0.35,0.23-0.45c0.1-0.08,0.22-0.11,0.34-0.11c0.05,0,0.1,0.01,0.15,0.02l6.37,1.71c0.24,0.07,0.34,0.37,0.34,0.63
				v7.96c0,0.18-0.08,0.34-0.22,0.45C209.89,203.58,209.77,203.62,209.65,203.62z"/>
			<g>
				
					<linearGradient id="SVGID_00000035523830483913337590000012909287329152708286_" gradientUnits="userSpaceOnUse" x1="206.5" y1="696.72" x2="206.5" y2="687.64" gradientTransform="matrix(1 0 0 1 0 -494)">
					<stop  offset="0" style="stop-color:#FAAB18"/>
					<stop  offset="0.6692" style="stop-color:#FBC818"/>
					<stop  offset="1" style="stop-color:#FCD818"/>
				</linearGradient>
				<polygon style="fill:url(#SVGID_00000035523830483913337590000012909287329152708286_);" points="203.6,201.12 203.6,193.64 
					209.4,195.29 209.4,202.72 				"/>
				<path class="st22" d="M203.85,193.97l5.3,1.5v6.92l-5.3-1.47V193.97 M203.35,193.31v8l6.3,1.74v-7.96L203.35,193.31
					L203.35,193.31z"/>
			</g>
			<path class="st31" d="M217.56,205.54c-0.04,0-0.09,0-0.13-0.02l-6.3-1.49c-0.26-0.06-0.44-0.29-0.44-0.55v-8.08
				c0-0.18,0.08-0.35,0.23-0.45c0.1-0.08,0.22-0.11,0.34-0.11c0.05,0,0.1,0.01,0.15,0.02l6.31,1.69c0.24,0.07,0.4,0.38,0.4,0.64
				v7.79c0,0.17-0.08,0.34-0.22,0.44C217.81,205.49,217.69,205.54,217.56,205.54z"/>
			<g>
				
					<linearGradient id="SVGID_00000131348296039264352060000012384214224240011913_" gradientUnits="userSpaceOnUse" x1="214.41" y1="698.65" x2="214.41" y2="689.72" gradientTransform="matrix(1 0 0 1 0 -494)">
					<stop  offset="0" style="stop-color:#FAAB18"/>
					<stop  offset="0.6692" style="stop-color:#FBC818"/>
					<stop  offset="1" style="stop-color:#FCD818"/>
				</linearGradient>
				<polygon style="fill:url(#SVGID_00000131348296039264352060000012384214224240011913_);" points="211.51,203.28 211.51,195.72 
					217.31,197.37 217.31,204.65 				"/>
				<path class="st22" d="M211.76,196.06l5.3,1.5v6.78l-5.3-1.25V196.06 M211.26,195.39v8.09l6.3,1.49v-7.79L211.26,195.39
					L211.26,195.39z"/>
			</g>
		</g>
	</g>
	
		<linearGradient id="SVGID_00000152260448513968438140000004982030882671334059_" gradientUnits="userSpaceOnUse" x1="241.1369" y1="705.105" x2="241.5197" y2="705.105" gradientTransform="matrix(1 0 0 1 0 -494)">
		<stop  offset="0" style="stop-color:#214197"/>
		<stop  offset="0.5622" style="stop-color:#1D2A6C"/>
		<stop  offset="1" style="stop-color:#1B1A4F"/>
	</linearGradient>
	<polygon style="fill:url(#SVGID_00000152260448513968438140000004982030882671334059_);" points="241.14,198.73 241.14,223.35 
		241.52,223.48 241.52,199.13 	"/>
	<path class="st37" d="M264.75,237.33c0,0-57.83-27.87-121.96-28.92c-5.95,0.14-44.88-1.32-96.86,23.02
		c10.86-5.71,32.95-18.64,62.74-23.18c18.01-2.75,79.36-7.63,124.81,14.2C255.58,231.39,264.75,237.33,264.75,237.33z"/>
	<g>
		<g>
			
				<linearGradient id="SVGID_00000011013612326035888290000012905979501214799772_" gradientUnits="userSpaceOnUse" x1="100.48" y1="701.5231" x2="171" y2="701.5231" gradientTransform="matrix(1 0 0 1 0 -494)">
				<stop  offset="0" style="stop-color:#E4F3F8"/>
				<stop  offset="0.0515" style="stop-color:#DDF1F8"/>
				<stop  offset="0.1288" style="stop-color:#C8EAF6"/>
				<stop  offset="0.2225" style="stop-color:#A6DFF4"/>
				<stop  offset="0.3279" style="stop-color:#78CFF1"/>
				<stop  offset="0.43" style="stop-color:#44BEEE"/>
				<stop  offset="0.4585" style="stop-color:#42B5E8"/>
				<stop  offset="0.7033" style="stop-color:#346BB5"/>
				<stop  offset="0.8166" style="stop-color:#2E4EA1"/>
			</linearGradient>
			<path style="fill:url(#SVGID_00000011013612326035888290000012905979501214799772_);" d="M108.67,208.25
				c10.3-1.57,34.77-3.84,62.33-1.41c-32.16-3.34-55.27-0.7-70.52,2.9C103.14,209.18,105.87,208.68,108.67,208.25z"/>
		</g>
		<g>
			
				<linearGradient id="SVGID_00000095321055466267909850000001506094783759211962_" gradientUnits="userSpaceOnUse" x1="42" y1="716.8701" x2="264.77" y2="716.8701" gradientTransform="matrix(1 0 0 1 0 -494)">
				<stop  offset="0" style="stop-color:#E4F3F8"/>
				<stop  offset="0.0515" style="stop-color:#DDF1F8"/>
				<stop  offset="0.1288" style="stop-color:#C8EAF6"/>
				<stop  offset="0.2225" style="stop-color:#A6DFF4"/>
				<stop  offset="0.3279" style="stop-color:#78CFF1"/>
				<stop  offset="0.43" style="stop-color:#44BEEE"/>
				<stop  offset="0.5145" style="stop-color:#349EDE"/>
				<stop  offset="0.7209" style="stop-color:#0F54BA"/>
				<stop  offset="0.8166" style="stop-color:#0037AC"/>
			</linearGradient>
			<path style="fill:url(#SVGID_00000095321055466267909850000001506094783759211962_);" d="M142.8,208.41
				c-5.27,0.12-36.46-0.99-79.68,15.7c-5.99,2.49-12.57,5.26-16.82,7.16c-0.12,0.06-0.24,0.11-0.36,0.17c0.01,0,0.01-0.01,0.02-0.01
				c-2.02,0.91-3.46,1.61-3.96,1.95c45.7-19.28,95.02-18.02,106.94-17.94c35.4,0.43,70.38,16.91,70.38,16.91s2.81,0.06,12.94,0.38
				c16.38-0.38,32.51,4.6,32.51,4.6S206.92,209.46,142.8,208.41z"/>
		</g>
		<g>
			
				<linearGradient id="SVGID_00000064337176109517791070000009014710791200425364_" gradientUnits="userSpaceOnUse" x1="236.16" y1="724.445" x2="264.75" y2="724.445" gradientTransform="matrix(1 0 0 1 0 -494)">
				<stop  offset="0" style="stop-color:#E4F3F8"/>
				<stop  offset="0.0515" style="stop-color:#DDF1F8"/>
				<stop  offset="0.1288" style="stop-color:#C8EAF6"/>
				<stop  offset="0.2225" style="stop-color:#A6DFF4"/>
				<stop  offset="0.3279" style="stop-color:#78CFF1"/>
				<stop  offset="0.43" style="stop-color:#44BEEE"/>
				<stop  offset="0.4585" style="stop-color:#42B5E8"/>
				<stop  offset="0.7033" style="stop-color:#346BB5"/>
				<stop  offset="0.8166" style="stop-color:#2E4EA1"/>
			</linearGradient>
			<path style="fill:url(#SVGID_00000064337176109517791070000009014710791200425364_);" d="M264.75,237.33
				c-4.17-3.96-15.06-8.94-28.59-13.77C256.32,231.88,264.75,237.33,264.75,237.33z"/>
		</g>
	</g>
	<g>
		<path class="st41" d="M195.99,236.87c-25.65-7.96-55.04-10.7-80.34-9.44c-33.49,1.68-59.81,9.2-60.74,9.43
			c0.95-0.75,25.87-18.34,83.32-17.91C180.44,220.91,196.07,236.84,195.99,236.87z"/>
	</g>
	<path class="st42" d="M195.99,236.87c-0.49-0.16-0.98-0.31-1.47-0.47c-59.62-18.51-137.97,0.07-139.61,0.46
		c67.1-28.26,125.73-6.8,139.85-0.55C195.22,236.52,195.63,236.7,195.99,236.87z"/>
	
		<linearGradient id="SVGID_00000148649717127801732530000007756995900668795829_" gradientUnits="userSpaceOnUse" x1="119.535" y1="698.27" x2="119.535" y2="640.58" gradientTransform="matrix(1 0 0 1 0 -494)">
		<stop  offset="0" style="stop-color:#0C2F95"/>
		<stop  offset="0.1088" style="stop-color:#12399B"/>
		<stop  offset="0.2942" style="stop-color:#2454AA"/>
		<stop  offset="0.5339" style="stop-color:#4080C4"/>
		<stop  offset="0.8153" style="stop-color:#66BDE6"/>
		<stop  offset="1" style="stop-color:#82E8FF"/>
	</linearGradient>
	<polygon style="fill:url(#SVGID_00000148649717127801732530000007756995900668795829_);" points="118.06,146.58 118.06,204.27 
		121.01,203.94 121.01,147.6 	"/>
	
		<linearGradient id="SVGID_00000029030811502844028420000018093773476838533275_" gradientUnits="userSpaceOnUse" x1="124.36" y1="697.55" x2="124.36" y2="642.39" gradientTransform="matrix(1 0 0 1 0 -494)">
		<stop  offset="0" style="stop-color:#0C2F95"/>
		<stop  offset="0.1088" style="stop-color:#12399B"/>
		<stop  offset="0.2942" style="stop-color:#2454AA"/>
		<stop  offset="0.5339" style="stop-color:#4080C4"/>
		<stop  offset="0.8153" style="stop-color:#66BDE6"/>
		<stop  offset="1" style="stop-color:#82E8FF"/>
	</linearGradient>
	<polygon style="fill:url(#SVGID_00000029030811502844028420000018093773476838533275_);" points="123.29,148.39 123.29,203.55 
		125.43,203.05 125.43,149.13 	"/>
	
		<linearGradient id="SVGID_00000016035095315511177570000001730972345328270235_" gradientUnits="userSpaceOnUse" x1="129.635" y1="697.05" x2="129.635" y2="643.9901" gradientTransform="matrix(1 0 0 1 0 -494)">
		<stop  offset="0" style="stop-color:#0C2F95"/>
		<stop  offset="0.1088" style="stop-color:#12399B"/>
		<stop  offset="0.2942" style="stop-color:#2454AA"/>
		<stop  offset="0.5339" style="stop-color:#4080C4"/>
		<stop  offset="0.8153" style="stop-color:#66BDE6"/>
		<stop  offset="1" style="stop-color:#82E8FF"/>
	</linearGradient>
	<polygon style="fill:url(#SVGID_00000016035095315511177570000001730972345328270235_);" points="127.92,149.99 127.92,203.05 
		128.54,203.05 131.35,202.77 131.35,151.18 	"/>
	<path class="st46" d="M264.35,236.87c-0.02,0,0.43,0.48,0.41,0.46c-22.43-11.05-35.62-16.87-60.09-23.43
		c-7.18-1.67-29.52-6.56-52.89-7.57c-8.61-0.37-19.24-0.52-27.41,0.52c-9.83,1.27-27.48,3.35-51.6,11.9
		c-4.3,1.34-11.87,4.92-18.35,8.15c-2.84,1.16-9.94,5.19-12.04,6.11c27.96-19.74,62.99-27.02,70.72-28.34
		c15.46-2.91,33.54-3.8,49.12-1.95C236.16,211.11,260.5,234.29,264.35,236.87z"/>
</g>
<g>
	<g>
		
			<radialGradient id="SVGID_00000044889597739132241520000010739845827556809101_" cx="700.4002" cy="8254.8047" r="44.5046" gradientTransform="matrix(1.2902 0 0 0.0555 -512.8163 -293.5517)" gradientUnits="userSpaceOnUse">
			<stop  offset="0" style="stop-color:#FF9912"/>
			<stop  offset="0.1413" style="stop-color:#FF9912;stop-opacity:0.8587"/>
			<stop  offset="1" style="stop-color:#FF9912;stop-opacity:0"/>
		</radialGradient>
		
			<ellipse style="fill:url(#SVGID_00000044889597739132241520000010739845827556809101_);" cx="390.84" cy="164.59" rx="57.42" ry="2.47"/>
		
			<radialGradient id="SVGID_00000021797488350693253000000007850299419019233463_" cx="547.8075" cy="5479.1982" r="30.7487" gradientTransform="matrix(1.8545 0 0 0.1074 -625.069 -423.9534)" gradientUnits="userSpaceOnUse">
			<stop  offset="0" style="stop-color:#FF9912"/>
			<stop  offset="0.1413" style="stop-color:#FF9912;stop-opacity:0.8587"/>
			<stop  offset="1" style="stop-color:#FF9912;stop-opacity:0"/>
		</radialGradient>
		<path style="fill:url(#SVGID_00000021797488350693253000000007850299419019233463_);" d="M447.88,164.59
			c0,1.82-25.54,3.3-57.04,3.3c-31.51,0-57.04-1.48-57.04-3.3c0-1.82,25.54-3.3,57.04-3.3
			C422.34,161.28,447.88,162.76,447.88,164.59z"/>
		
			<radialGradient id="SVGID_00000038371577417903297220000000990117949453967016_" cx="803.625" cy="10499.4033" r="44.4946" gradientTransform="matrix(2.7387 0 0 0.0555 -1810.0427 -418.1504)" gradientUnits="userSpaceOnUse">
			<stop  offset="0" style="stop-color:#FF9912"/>
			<stop  offset="0.1413" style="stop-color:#FF9912;stop-opacity:0.8587"/>
			<stop  offset="1" style="stop-color:#FF9912;stop-opacity:0"/>
		</radialGradient>
		<path style="fill:url(#SVGID_00000038371577417903297220000000990117949453967016_);" d="M512.74,164.59
			c0,1.36-54.57,2.47-121.9,2.47c-67.32,0-121.89-1.1-121.89-2.47s54.57-2.47,121.9-2.47C458.16,162.12,512.74,163.22,512.74,164.59
			z"/>
		
			<radialGradient id="SVGID_00000097486469929548424830000016240049386274888860_" cx="803.625" cy="28381.0312" r="44.5355" gradientTransform="matrix(2.7387 0 0 0.02 -1810.0427 -403.285)" gradientUnits="userSpaceOnUse">
			<stop  offset="0" style="stop-color:#FFFFFF"/>
			<stop  offset="0.0356" style="stop-color:#FFEED8;stop-opacity:0.9644"/>
			<stop  offset="0.0796" style="stop-color:#FFDCAF;stop-opacity:0.9204"/>
			<stop  offset="0.1291" style="stop-color:#FFCC89;stop-opacity:0.8709"/>
			<stop  offset="0.183" style="stop-color:#FFBE69;stop-opacity:0.817"/>
			<stop  offset="0.2427" style="stop-color:#FFB34D;stop-opacity:0.7573"/>
			<stop  offset="0.31" style="stop-color:#FFA937;stop-opacity:0.69"/>
			<stop  offset="0.3885" style="stop-color:#FFA226;stop-opacity:0.6115"/>
			<stop  offset="0.4856" style="stop-color:#FF9D1B;stop-opacity:0.5144"/>
			<stop  offset="0.6218" style="stop-color:#FF9A14;stop-opacity:0.3782"/>
			<stop  offset="1" style="stop-color:#FF9912;stop-opacity:0"/>
		</radialGradient>
		<path style="fill:url(#SVGID_00000097486469929548424830000016240049386274888860_);" d="M512.74,164.59
			c0,0.49-54.57,0.89-121.9,0.89c-67.32,0-121.89-0.39-121.89-0.89c0-0.49,54.57-0.89,121.9-0.89
			C458.16,163.7,512.74,164.09,512.74,164.59z"/>
		
			<radialGradient id="SVGID_00000130618836788279849060000005654942751874667676_" cx="755.6077" cy="27474.4629" r="44.5148" gradientTransform="matrix(1.4082 0 0 0.0161 -673.2168 -277.6796)" gradientUnits="userSpaceOnUse">
			<stop  offset="0" style="stop-color:#FFFFFF"/>
			<stop  offset="0.0356" style="stop-color:#FFEED8;stop-opacity:0.9644"/>
			<stop  offset="0.0796" style="stop-color:#FFDCAF;stop-opacity:0.9204"/>
			<stop  offset="0.1291" style="stop-color:#FFCC89;stop-opacity:0.8709"/>
			<stop  offset="0.183" style="stop-color:#FFBE69;stop-opacity:0.817"/>
			<stop  offset="0.2427" style="stop-color:#FFB34D;stop-opacity:0.7573"/>
			<stop  offset="0.31" style="stop-color:#FFA937;stop-opacity:0.69"/>
			<stop  offset="0.3885" style="stop-color:#FFA226;stop-opacity:0.6115"/>
			<stop  offset="0.4856" style="stop-color:#FF9D1B;stop-opacity:0.5144"/>
			<stop  offset="0.6218" style="stop-color:#FF9A14;stop-opacity:0.3782"/>
			<stop  offset="1" style="stop-color:#FF9912;stop-opacity:0"/>
		</radialGradient>
		<path style="fill:url(#SVGID_00000130618836788279849060000005654942751874667676_);" d="M453.51,164.59
			c0,0.4-28.06,0.72-62.68,0.72s-62.68-0.32-62.68-0.72c0-0.4,28.06-0.72,62.68-0.72S453.51,164.19,453.51,164.59z"/>
		
			<radialGradient id="SVGID_00000103976876397144646250000016526788477027190954_" cx="688.0831" cy="84132.3828" r="44.517" gradientTransform="matrix(2.248 0 0 6.354527e-03 -1155.9758 -370.0334)" gradientUnits="userSpaceOnUse">
			<stop  offset="0" style="stop-color:#FFFFFF"/>
			<stop  offset="0.0356" style="stop-color:#FFEED8;stop-opacity:0.9644"/>
			<stop  offset="0.0796" style="stop-color:#FFDCAF;stop-opacity:0.9204"/>
			<stop  offset="0.1291" style="stop-color:#FFCC89;stop-opacity:0.8709"/>
			<stop  offset="0.183" style="stop-color:#FFBE69;stop-opacity:0.817"/>
			<stop  offset="0.2427" style="stop-color:#FFB34D;stop-opacity:0.7573"/>
			<stop  offset="0.31" style="stop-color:#FFA937;stop-opacity:0.69"/>
			<stop  offset="0.3885" style="stop-color:#FFA226;stop-opacity:0.6115"/>
			<stop  offset="0.4856" style="stop-color:#FF9D1B;stop-opacity:0.5144"/>
			<stop  offset="0.6218" style="stop-color:#FF9A14;stop-opacity:0.3782"/>
			<stop  offset="1" style="stop-color:#FF9912;stop-opacity:0"/>
		</radialGradient>
		<path style="fill:url(#SVGID_00000103976876397144646250000016526788477027190954_);" d="M490.89,164.59
			c0,0.15-44.79,0.28-100.06,0.28s-100.05-0.13-100.05-0.28c0-0.15,44.8-0.28,100.06-0.28S490.89,164.43,490.89,164.59z"/>
	</g>
	<g>
		
			<linearGradient id="SVGID_00000160869727046888529770000015257292371319615160_" gradientUnits="userSpaceOnUse" x1="296.407" y1="1175.8176" x2="296.407" y2="1150.2076" gradientTransform="matrix(1 0 0 1 0 -1030.4276)">
			<stop  offset="2.492013e-07" style="stop-color:#075CF3"/>
			<stop  offset="0.1902" style="stop-color:#1D77F3"/>
			<stop  offset="0.5964" style="stop-color:#56BBF3"/>
			<stop  offset="0.6945" style="stop-color:#65CCF3"/>
		</linearGradient>
		
			<linearGradient id="SVGID_00000078044505822819771090000017115390377618522240_" gradientUnits="userSpaceOnUse" x1="296.407" y1="1176.1497" x2="296.407" y2="1149.8756" gradientTransform="matrix(1 0 0 1 0 -1030.4276)">
			<stop  offset="0" style="stop-color:#2084C4"/>
			<stop  offset="0.2296" style="stop-color:#0381FA"/>
			<stop  offset="0.364" style="stop-color:#1E8FF9"/>
			<stop  offset="0.653" style="stop-color:#62B2F6"/>
			<stop  offset="1" style="stop-color:#BCE0F2"/>
		</linearGradient>
		
			<path style="fill:url(#SVGID_00000160869727046888529770000015257292371319615160_);stroke:url(#SVGID_00000078044505822819771090000017115390377618522240_);stroke-width:0.664;stroke-linejoin:round;stroke-miterlimit:10;" d="
			M300.77,144.91v-9.59c0-0.48-0.03-0.94-0.1-1.38c-0.07-0.45-0.2-0.86-0.38-1.2c-0.19-0.36-0.46-0.66-0.8-0.87
			c-0.35-0.22-0.78-0.33-1.29-0.33c-0.54,0-1.01,0.1-1.37,0.31c-0.37,0.2-0.67,0.5-0.89,0.87c-0.21,0.36-0.36,0.8-0.44,1.31
			c-0.08,0.49-0.12,1.04-0.12,1.65v9.24h-5.94v-25.13h5.94v9.07c0,0.09,0.05,0.18,0.13,0.24c0.05,0.03,0.1,0.05,0.16,0.05
			c0.04,0,0.08-0.01,0.11-0.02c2.05-0.88,3.85-1.32,5.37-1.32c5.42,0,5.57,5.56,5.57,6.2v10.92h-5.95
			C300.77,144.93,300.77,144.91,300.77,144.91z M313.07,145.39c-0.15,0-0.3,0-0.44-0.01c-1.94-0.13-3.25-0.84-3.68-1.2
			c-0.47-0.4-0.85-0.91-1.13-1.52c-0.28-0.61-0.43-1.36-0.43-2.22c0-0.93,0.15-1.71,0.45-2.31c0.3-0.61,0.69-1.11,1.16-1.49
			l0.09-0.07c0.59-0.48,2.37-1.94,6.32-1.94c0.3,0,0.61,0.01,0.93,0.03c0.05,0,0.11,0,0.17,0c0.59,0,1.62-0.13,1.66-0.13
			c0.13-0.02,0.24-0.13,0.25-0.26c0.11-1.62-0.04-1.82-0.1-1.89c-0.19-0.25-0.45-0.59-1.2-0.8c-0.75-0.21-1.52-0.32-2.29-0.32
			c-2.49,0-4.35,1.07-5,1.5l-1.54-2.29c0.47-0.49,2.07-1.98,4.35-2.41c1.05-0.26,2.33-0.39,3.82-0.39c1.19,0,2.22,0.08,3.06,0.24
			c0.82,0.15,1.52,0.38,2.06,0.67c0.53,0.29,0.96,0.63,1.27,1.02c0.31,0.4,0.55,0.85,0.71,1.34c0.16,0.51,0.26,1.07,0.3,1.66
			c0.04,0.61,0.06,1.26,0.06,1.94v6.32c0,0.2,0,0.53,1.97,0.53c0.31,0,0.59-0.01,0.82-0.03c0.15,2.23-0.12,2.91-0.25,3.11
			c-1.13,0.5-2.13,0.75-2.99,0.75c-2.4,0-2.91-2-2.91-2.02c-0.02-0.1-0.1-0.18-0.2-0.21c-0.02-0.01-0.05-0.01-0.07-0.01
			c-0.08,0-0.15,0.03-0.2,0.09C319.73,143.44,316.14,145.39,313.07,145.39z M316.86,137.19c-0.7,0-1.28,0.08-1.76,0.25
			c-2,0.7-1.95,2.27-1.94,2.78v0.09c0,0.52,0.21,0.95,0.63,1.27c0.39,0.31,0.93,0.46,1.59,0.46c0.59,0,1.09-0.13,1.49-0.37
			s0.72-0.58,0.96-1.01c0.23-0.41,0.39-0.9,0.47-1.45c0.08-0.53,0.1-1.11,0.06-1.72c-0.01-0.15-0.13-0.26-0.28-0.26
			c-0.12,0-0.27-0.01-0.44-0.02C317.41,137.2,317.14,137.19,316.86,137.19z M281.6,144.91l-9.11-14.78
			c-0.05-0.08-0.14-0.13-0.24-0.13c-0.03,0-0.05,0-0.08,0.01c-0.12,0.04-0.21,0.15-0.2,0.27l0.12,14.63h-6.03v-25.12h6.39l9.14,15.2
			c0.05,0.09,0.14,0.14,0.24,0.14c0.03,0,0.05,0,0.08-0.01c0.12-0.03,0.21-0.15,0.21-0.27l-0.03-15.06h4.87v25.13h-5.36
			C281.6,144.92,281.6,144.91,281.6,144.91z M313.37,125.67l-4.89-5.89h5.37l4.1,5.89H313.37z"/>
		
			<linearGradient id="SVGID_00000105416434341611811480000013825902743411181445_" gradientUnits="userSpaceOnUse" x1="360.0945" y1="1175.8176" x2="360.0945" y2="1148.2876" gradientTransform="matrix(1 0 0 1 0 -1030.4276)">
			<stop  offset="0" style="stop-color:#005AA9"/>
			<stop  offset="0.2191" style="stop-color:#1875BB"/>
			<stop  offset="0.5707" style="stop-color:#45A7DE"/>
			<stop  offset="0.6384" style="stop-color:#4CAFE3"/>
			<stop  offset="0.909" style="stop-color:#65CCF3"/>
		</linearGradient>
		
			<linearGradient id="SVGID_00000095324810671214820700000015901253671947100808_" gradientUnits="userSpaceOnUse" x1="360.0945" y1="1176.1497" x2="360.0945" y2="1147.9556" gradientTransform="matrix(1 0 0 1 0 -1030.4276)">
			<stop  offset="0" style="stop-color:#005AA9"/>
			<stop  offset="0.0894" style="stop-color:#096EB6"/>
			<stop  offset="0.2173" style="stop-color:#1283C5"/>
			<stop  offset="0.3419" style="stop-color:#1890CE"/>
			<stop  offset="0.4583" style="stop-color:#1A94D1"/>
			<stop  offset="0.8553" style="stop-color:#BCE0F2"/>
		</linearGradient>
		
			<path style="fill:url(#SVGID_00000105416434341611811480000013825902743411181445_);stroke:url(#SVGID_00000095324810671214820700000015901253671947100808_);stroke-width:0.664;stroke-linejoin:round;stroke-miterlimit:10;" d="
			M360.58,145.39c-0.16,0-0.31,0-0.47-0.01c-2.04-0.13-3.41-0.84-3.85-1.2c-0.49-0.4-0.89-0.91-1.18-1.52
			c-0.3-0.61-0.44-1.36-0.44-2.21c0-0.93,0.16-1.7,0.46-2.31c0.31-0.61,0.72-1.11,1.22-1.49l0.09-0.07
			c0.61-0.48,2.48-1.95,6.62-1.95c0.31,0,0.64,0.01,0.98,0.03c0.05,0,0.11,0,0.17,0c0.62,0,1.69-0.13,1.73-0.13
			c0.13-0.02,0.24-0.12,0.25-0.26c0.12-1.62-0.05-1.82-0.11-1.9c-0.2-0.25-0.47-0.58-1.25-0.79c-0.78-0.21-1.58-0.31-2.39-0.31
			c-2.61,0-4.57,1.09-5.23,1.51l-1.61-2.29c0.5-0.49,2.17-1.98,4.55-2.41c1.1-0.26,2.44-0.39,4-0.39c1.25,0,2.32,0.08,3.2,0.24
			c0.86,0.16,1.59,0.38,2.15,0.67c0.56,0.29,1,0.63,1.33,1.02c0.33,0.39,0.57,0.85,0.74,1.34c0.17,0.51,0.27,1.07,0.32,1.66
			c0.04,0.61,0.07,1.27,0.07,1.94v6.32c0,0.2,0,0.53,2.05,0.53c0.33,0,0.63-0.01,0.87-0.03c0.16,2.23-0.12,2.91-0.26,3.11
			c-1.18,0.5-2.24,0.75-3.14,0.75c-2.52,0-3.05-2.01-3.06-2.03c-0.02-0.1-0.1-0.18-0.2-0.2c-0.02-0.01-0.05-0.01-0.07-0.01
			c-0.07,0-0.15,0.03-0.2,0.08C367.54,143.44,363.79,145.39,360.58,145.39z M364.53,137.19c-0.73,0-1.33,0.08-1.83,0.25
			c-2.08,0.7-2.03,2.27-2.02,2.78v0.09c0,0.52,0.22,0.95,0.65,1.27c0.41,0.3,0.96,0.46,1.65,0.46c0.61,0,1.13-0.12,1.54-0.37
			c0.42-0.24,0.75-0.58,1-1.01c0.24-0.41,0.41-0.9,0.49-1.45c0.08-0.53,0.1-1.11,0.06-1.72c-0.01-0.15-0.13-0.26-0.28-0.26
			c-0.13,0-0.28-0.01-0.46-0.02C365.11,137.2,364.83,137.19,364.53,137.19z M341.22,145.37c-1.39,0-2.62-0.23-3.66-0.7
			c-1.1-0.49-1.95-1.11-2.59-1.89c-2.42-2.93-1.74-7.98-1.33-9.15c0.86-2.46,2.56-4.21,4.93-5.08c0.76-0.28,2.19-0.46,3.63-0.46
			c2.2,0,4.07,0.39,5.12,1.06c0.05,0.03,0.1,0.04,0.15,0.04c0.05,0,0.09-0.01,0.14-0.03c0.09-0.05,0.15-0.14,0.15-0.25v-2.45
			c0-0.16-0.13-0.28-0.28-0.28h-6.43v-3.06h6.47c0.16,0,0.28-0.13,0.28-0.28v-2.21h5.1v2.3c0,0.16,0.13,0.28,0.28,0.28h2.09v3.09
			h-2.09c-0.16,0-0.28,0.13-0.28,0.28v18.27h-5.36v-1.55c0-0.12-0.08-0.23-0.19-0.27c-0.03-0.01-0.06-0.02-0.09-0.02
			c-0.08,0-0.16,0.04-0.22,0.1c-0.37,0.46-2.11,1.71-4.19,2.1C342.33,145.32,341.78,145.37,341.22,145.37z M343.58,131.44
			c-1.35,0-2.66,0.57-3.48,1.53c-1.02,1.27-1.42,2.86-1.11,4.48c0.28,1.45,1.08,2.68,2.14,3.29c0.82,0.37,1.61,0.55,2.36,0.55
			c2.74,0,4.13-2.33,4.19-2.43c0.03-0.04,0.04-0.09,0.04-0.14v-5.4c0-0.08-0.04-0.16-0.1-0.21
			C346.34,132.02,344.94,131.44,343.58,131.44z M381.57,145.36c-0.73,0-1.34-0.05-1.7-0.13c-2.91-0.69-3.21-3.41-3.21-3.44
			c-0.07-0.73-0.1-1.62-0.1-2.64v-7.06c0-0.16-0.13-0.28-0.28-0.28h-2.61v-3.57h2.69c0.16,0,0.28-0.13,0.28-0.28v-5.14h5.34v5.13
			c0,0.16,0.13,0.28,0.28,0.28h4.7v3.57h-4.7c-0.16,0-0.28,0.13-0.28,0.28v6.07c0,0.42,0.02,0.79,0.06,1.09
			c0.16,1.24,0.73,2.01,1.61,2.17c0.18,0.03,0.39,0.05,0.62,0.05c0.86,0,1.88-0.22,2.41-0.36v3.53
			C385.16,145.16,383,145.36,381.57,145.36z M366.29,125.74l-1.75-2.7c-0.05-0.08-0.14-0.13-0.24-0.13s-0.18,0.05-0.24,0.13
			l-1.75,2.7h-4.09l3.55-4.93h5.07l0.53,0.73c0.05,0.07,0.14,0.12,0.23,0.12l0,0c0.09,0,0.18-0.04,0.23-0.12l2.66-3.68h4.14
			c0.16,0,0.23,0.12,0.24,0.16c0.02,0.04,0.06,0.17-0.05,0.29l-5.3,5.82c-0.09,0.1-0.1,0.25-0.02,0.36l0.91,1.25H366.29z"/>
		<path class="st55" d="M281.95,119.5h5.15c0.08,0,0.14,0.06,0.14,0.14v25.4c0,0.08-0.06,0.14-0.14,0.14h-5.58
			c-0.05,0-0.1-0.03-0.12-0.07l-8.88-14.39c-0.08-0.12-0.27-0.07-0.27,0.08l0.12,14.25c0,0.08-0.06,0.15-0.14,0.15h-6.31
			c-0.08,0-0.14-0.06-0.14-0.14v-25.41c0-0.08,0.06-0.14,0.14-0.14h6.6c0.05,0,0.1,0.03,0.12,0.07l8.91,14.82
			c0.08,0.13,0.27,0.07,0.27-0.07l-0.01-14.68C281.81,119.57,281.87,119.5,281.95,119.5z M295.66,128.64v-8.99
			c0-0.08-0.06-0.14-0.14-0.14h-6.22c-0.08,0-0.14,0.06-0.14,0.14v25.4c0,0.08,0.06,0.14,0.14,0.14h6.22c0.08,0,0.14-0.06,0.14-0.14
			v-9.38c0-0.59,0.04-1.13,0.11-1.6c0.08-0.48,0.21-0.88,0.4-1.21c0.19-0.33,0.45-0.59,0.78-0.77c0.33-0.18,0.74-0.27,1.24-0.27
			c0.46,0,0.84,0.1,1.14,0.29c0.3,0.19,0.53,0.45,0.7,0.77c0.17,0.32,0.28,0.69,0.35,1.11c0.07,0.42,0.1,0.87,0.1,1.33v9.73
			c0,0.08,0.06,0.14,0.14,0.14h6.22c0.08,0,0.14-0.06,0.14-0.14V134c0-2.07-1.17-9.38-11.13-5.22
			C295.77,128.81,295.66,128.75,295.66,128.64z M313.14,125.83c0.07,0.08,0.16,0.13,0.27,0.13h4.42c0.28,0,0.45-0.32,0.29-0.55
			l-4.01-5.75c-0.07-0.09-0.17-0.15-0.29-0.15h-5.19c-0.3,0-0.46,0.34-0.27,0.57L313.14,125.83z M326.6,144.73
			c-4.66,2.07-5.98-0.52-6.26-1.26c-0.03-0.09-0.14-0.12-0.22-0.06c-0.88,0.63-4.57,2.45-7.51,2.25c-1.96-0.13-3.34-0.84-3.84-1.26
			s-0.9-0.96-1.21-1.62c-0.3-0.65-0.45-1.43-0.45-2.33c0-0.98,0.16-1.79,0.47-2.44c0.32-0.65,0.73-1.18,1.24-1.58
			c0.51-0.41,2.57-2.33,7.54-2.05c0.43,0.02,1.34-0.07,1.66-0.11c0.07-0.01,0.12-0.06,0.12-0.13c0.02-0.36,0.07-1.42-0.05-1.58
			c-0.15-0.19-0.34-0.5-1.06-0.7c-3.65-1.02-6.57,0.81-7.17,1.23c-0.07,0.05-0.15,0.03-0.2-0.04l-1.68-2.49
			c-0.04-0.06-0.03-0.13,0.01-0.18c0.37-0.4,2.07-2.1,4.58-2.58c1.06-0.26,2.35-0.39,3.88-0.39c1.21,0,2.25,0.08,3.11,0.24
			c0.86,0.16,1.57,0.39,2.14,0.7c0.57,0.31,1.02,0.67,1.36,1.09c0.33,0.42,0.59,0.9,0.75,1.43c0.17,0.53,0.27,1.11,0.32,1.73
			c0.04,0.62,0.06,1.28,0.06,1.96v6.32c0,0.23,1.77,0.31,2.63,0.2c0.08-0.01,0.15,0.05,0.16,0.13c0.05,0.62,0.2,2.81-0.32,3.47
			C326.65,144.7,326.62,144.72,326.6,144.73z M318.09,137.65c0-0.08-0.06-0.14-0.14-0.14c-0.64-0.02-1.79-0.14-2.76,0.2
			c-1.94,0.68-1.75,2.23-1.75,2.6c0,0.43,0.17,0.78,0.52,1.05c0.34,0.27,0.82,0.4,1.42,0.4c0.54,0,0.98-0.11,1.34-0.33
			c0.36-0.22,0.65-0.52,0.86-0.91c0.22-0.39,0.36-0.84,0.44-1.35C318.09,138.7,318.11,138.19,318.09,137.65z"/>
		<path class="st55" d="M372.2,140.87v-6.32c0-0.69-0.02-1.34-0.07-1.96c-0.04-0.62-0.15-1.2-0.33-1.73s-0.44-1.01-0.79-1.43
			s-0.82-0.79-1.42-1.09c-0.59-0.31-1.34-0.54-2.23-0.7c-0.89-0.16-1.98-0.24-3.25-0.24c-1.59,0-2.94,0.13-4.05,0.39
			c-2.98,0.54-4.86,2.66-4.86,2.66l1.9,2.71c0,0,3.33-2.46,7.62-1.31c0.75,0.2,0.95,0.51,1.11,0.7c0.15,0.19,0.05,1.7,0.05,1.7
			s-1.31,0.15-1.86,0.13c-5.18-0.27-7.34,1.64-7.87,2.05s-0.97,0.94-1.3,1.58c-0.33,0.65-0.5,1.46-0.5,2.44
			c0,0.9,0.16,1.68,0.47,2.33c0.31,0.65,0.73,1.19,1.26,1.62c0.52,0.42,1.97,1.13,4.01,1.26c3.32,0.22,7.56-1.93,8.01-2.38
			c0,0,0.97,3.87,6.65,1.44c0.64-0.7,0.35-3.46,0.34-3.66C374.29,141.19,372.2,141.12,372.2,140.87z M365.75,139.17
			c-0.08,0.52-0.23,0.97-0.46,1.35c-0.23,0.39-0.52,0.69-0.9,0.91c-0.37,0.22-0.84,0.33-1.4,0.33c-0.63,0-1.12-0.13-1.48-0.4
			c-0.36-0.27-0.54-0.62-0.54-1.05c0-0.38-0.21-1.92,1.82-2.6c1.09-0.37,2.39-0.2,3.02-0.2
			C365.85,138.1,365.83,138.65,365.75,139.17z M362.47,126.02h-4.8l3.95-5.49h5.35l0.61,0.85l2.74-3.79h4.28
			c0.48,0,0.73,0.57,0.41,0.92l-5.3,5.82l1.23,1.7h-4.83l-1.83-2.83L362.47,126.02z M382.26,132.08v6.07c0,0.41,0.02,0.76,0.06,1.05
			c0.04,0.29,0.21,1.71,1.38,1.92c1.17,0.21,3.26-0.4,3.26-0.4v4.1c-2.16,0.83-5.93,0.96-7.16,0.67c-2.7-0.64-3.35-2.94-3.42-3.68
			c-0.07-0.74-0.11-1.63-0.11-2.67v-7.06h-2.89v-4.13h2.98v-5.41h5.9v5.41h4.98v4.13H382.26z M355.56,122.93h-2.38v-2.58h-5.67v2.49
			h-6.75v3.62h6.71v2.46c-2.25-1.44-7.24-1.27-8.99-0.63c-2.61,0.95-4.27,2.85-5.1,5.25c-0.5,1.44-1.03,6.5,1.38,9.42
			c0.7,0.85,1.62,1.48,2.69,1.97c1.07,0.48,2.33,0.72,3.77,0.72c0.6,0,1.16-0.05,1.68-0.15c2.09-0.39,3.9-1.65,4.35-2.2v1.83h5.93
			v-18.54h2.38V122.93z M347.43,138.73c0,0-2.09,3.59-6.16,1.78c-1.99-1.13-3.05-4.75-0.96-7.35c1.21-1.41,4.1-2.43,7.12,0.17
			V138.73L347.43,138.73z"/>
		
			<linearGradient id="SVGID_00000103247420318175620230000003302973826456469889_" gradientUnits="userSpaceOnUse" x1="487.662" y1="1182.2377" x2="487.662" y2="1150.6776" gradientTransform="matrix(1 0 0 1 0 -1030.4276)">
			<stop  offset="0" style="stop-color:#F4831F"/>
			<stop  offset="0.4034" style="stop-color:#F89E1B"/>
			<stop  offset="0.5707" style="stop-color:#FAAA19"/>
			<stop  offset="0.5915" style="stop-color:#FAAC18"/>
			<stop  offset="0.9171" style="stop-color:#FFC908"/>
		</linearGradient>
		
			<linearGradient id="SVGID_00000114073249083009165040000000096425466789847710_" gradientUnits="userSpaceOnUse" x1="487.662" y1="1182.4036" x2="487.662" y2="1150.5116" gradientTransform="matrix(1 0 0 1 0 -1030.4276)">
			<stop  offset="2.492013e-07" style="stop-color:#F6921D"/>
			<stop  offset="0.6779" style="stop-color:#FFC908"/>
			<stop  offset="0.7332" style="stop-color:#FED025"/>
			<stop  offset="0.8525" style="stop-color:#FBE16F"/>
			<stop  offset="0.9638" style="stop-color:#F8F3B9"/>
		</linearGradient>
		
			<path style="fill:url(#SVGID_00000103247420318175620230000003302973826456469889_);stroke:url(#SVGID_00000114073249083009165040000000096425466789847710_);stroke-width:0.332;stroke-linecap:round;stroke-linejoin:round;stroke-miterlimit:10;" d="
			M480.66,151.81c-4.31,0-7.19-1.69-7.91-2.23l1.44-2.63c0.8,0.49,2.89,1.57,5.67,1.57c1.01,0,2.01-0.15,2.99-0.43
			c0.02-0.01,0.05-0.02,0.07-0.03c1.53-0.79,2.09-1.34,2.45-4.49c0.02-0.18-0.09-0.35-0.26-0.4c-0.04-0.01-0.07-0.02-0.11-0.02
			c-0.14,0-0.26,0.07-0.33,0.2c-0.01,0.02-1.16,1.99-5.34,1.99c-0.26,0-0.54-0.01-0.83-0.02c-4.73-0.62-7.17-3.49-7.22-8.53
			c0-0.14,0-0.25-0.01-0.32c0.12-7.02,4.54-8.5,8.24-8.5c2.39,0,4.39,0.62,4.41,0.63c0.84,0.3,1.42,0.59,1.42,0.59
			c0.05,0.03,0.11,0.04,0.17,0.04c0.07,0,0.14-0.02,0.2-0.06c0.11-0.07,0.18-0.19,0.18-0.32v-0.67c0.07-0.07,0.49-0.37,2.6-0.37
			c0.52,0,1,0.02,1.31,0.04v13.94c0,0.92-0.03,1.82-0.08,2.67c-0.05,0.83-0.18,1.62-0.38,2.34c-0.2,0.71-0.49,1.35-0.86,1.92
			c-0.37,0.56-0.88,1.05-1.51,1.45c-0.37,0.23-1.65,1-2.76,1.25C483.02,151.68,481.84,151.81,480.66,151.81z M481.31,131.61
			c-0.78,0-2.26,0.18-3.32,1.36c-0.97,1.08-1.36,2.71-1.14,4.84c0.2,1.97,2.03,3.51,4.16,3.51c0,0,0.11,0,0.17,0
			c1.76-0.07,3.03-0.84,3.9-2.36c0.03-0.06,0.05-0.12,0.05-0.19l-0.01-5.23c0-0.09-0.03-0.17-0.08-0.24
			C484.15,132.19,482.86,131.61,481.31,131.61z M519.79,151.77c-1.67,0-3.02-1.01-3.02-2.25c0-1.24,1.36-2.25,3.02-2.25
			c1.67,0,3.02,1.01,3.02,2.25C522.82,150.76,521.46,151.77,519.79,151.77z M519.55,145.33c-1.28-0.02-2.4-0.21-3.42-0.59
			c-0.08-0.03-0.16-0.07-0.24-0.1l-0.13-0.06c-1.66-0.79-3.38-2.58-4.18-4.37c-0.44-0.99-0.66-2.25-0.66-3.86
			c0-0.87,0.19-1.96,0.36-2.72c1.28-3.67,4.55-5.89,8.74-5.9c3.5,0.07,5.95,1.46,7.26,4.12c0.25,0.51,1,3.02,0.74,5.57h-11.19
			c-0.21,0-0.38,0.17-0.38,0.38c0,0.58,0.09,1.12,0.28,1.59c0.18,0.47,0.44,0.89,0.76,1.24c0.32,0.35,0.7,0.62,1.12,0.81
			c0.01,0.01,0.89,0.49,2.48,0.49c1.58,0,3.26-0.46,5.02-1.37c0.48,0.71,0.95,1.49,1.4,2.31c-0.47,0.52-2.54,2.48-7.67,2.48
			L519.55,145.33z M520.08,131.44c-1.15,0-2.06,0.32-2.69,0.95c-0.64,0.63-0.96,1.5-0.96,2.57c0,0.21,0.17,0.38,0.38,0.38h6.38
			c0.21,0,0.38-0.17,0.38-0.38c0-0.47-0.1-0.92-0.29-1.35c-0.19-0.42-0.44-0.8-0.76-1.11c-0.32-0.32-0.69-0.57-1.1-0.77
			C520.99,131.54,520.54,131.44,520.08,131.44z M463.76,145.2l-10.29-16.19c-0.07-0.11-0.19-0.17-0.32-0.17
			c-0.04,0-0.07,0-0.11,0.01c-0.16,0.05-0.27,0.19-0.27,0.36v15.99h-5.52v-24.94h6.69l9.71,15.16c0.07,0.11,0.19,0.17,0.32,0.17
			c0.04,0,0.07,0,0.11-0.02c0.16-0.05,0.27-0.19,0.27-0.36l-0.02-14.96h5.04v24.94L463.76,145.2L463.76,145.2z M504.21,144.82v-9.9
			c0-1.68-1.37-3.05-3.05-3.05c-1.68,0-3.05,1.37-3.05,3.05l-0.05,9.9h-5.43v-24.48h5.78v8.81c0,0.14,0.08,0.27,0.21,0.34
			c0.05,0.03,0.11,0.04,0.17,0.04c0.08,0,0.16-0.03,0.23-0.07c1.53-1.14,3.08-1.72,4.61-1.72c0.44,0,0.89,0.05,1.32,0.15
			c3,0.68,4.52,3.01,4.52,6.95v9.99h-5.26L504.21,144.82L504.21,144.82z M513.33,126.14l3.92-4.72h4.46l3.67,4.34h-3.65l-1.8-1.61
			c-0.07-0.06-0.16-0.1-0.25-0.1c-0.09,0-0.18,0.03-0.25,0.09l-2.35,2.06L513.33,126.14z"/>
		<path class="st55" d="M480.66,152.1c-4.6,0-7.8-1.94-8.27-2.45l1.7-3.09c0.46,0.31,2.71,1.69,5.77,1.69
			c0.98,0,1.96-0.14,2.91-0.42c1.47-0.76,1.97-1.25,2.31-4.28c0.01-0.05-0.02-0.09-0.07-0.1c-0.01,0-0.02,0-0.03,0
			c-0.03,0-0.07,0.02-0.08,0.05c-0.01,0.02-1.21,2.14-5.59,2.14c-0.27,0-0.55-0.01-0.85-0.02c-4.91-0.64-7.43-3.61-7.49-8.8
			c0-0.13,0-0.24-0.01-0.3c0.12-7.27,4.7-8.8,8.52-8.8c2.43,0,4.48,0.63,4.5,0.64c0.87,0.31,1.46,0.61,1.46,0.61
			c0.01,0.01,0.03,0.01,0.04,0.01c0.02,0,0.03,0,0.05-0.01c0.03-0.02,0.04-0.05,0.04-0.08v-0.73c0.03-0.16,0.38-0.59,2.88-0.59
			c0.72,0,1.36,0.04,1.59,0.05v14.2c0,0.93-0.03,1.83-0.08,2.69c-0.05,0.85-0.19,1.66-0.39,2.4c-0.2,0.73-0.51,1.41-0.9,2
			c-0.39,0.59-0.93,1.11-1.6,1.53c-0.38,0.24-1.69,1.03-2.85,1.28C483.06,151.96,481.86,152.1,480.66,152.1z M481.31,131.89
			c-0.74,0-2.12,0.16-3.11,1.26c-0.92,1.02-1.28,2.57-1.07,4.62c0.19,1.83,1.89,3.26,3.88,3.26h0.16c2.2-0.09,3.14-1.31,3.66-2.22
			v-5.28C483.98,132.44,482.77,131.89,481.31,131.89z M519.79,152.05c-1.82,0-3.3-1.14-3.3-2.53s1.48-2.53,3.3-2.53
			s3.3,1.14,3.3,2.53C523.09,150.91,521.62,152.05,519.79,152.05z M519.54,145.61c-1.32-0.02-2.47-0.22-3.51-0.61
			c-0.09-0.03-0.17-0.07-0.26-0.11l-0.13-0.06c-1.72-0.82-3.5-2.67-4.33-4.51c-0.46-1.03-0.68-2.33-0.68-3.98
			c0-0.89,0.2-2,0.36-2.78c1.33-3.82,4.7-6.12,9.01-6.12c3.57,0.07,6.17,1.55,7.51,4.28c0.36,0.72,1.06,3.45,0.74,5.98h-11.44
			c-0.05,0-0.09,0.04-0.09,0.09c0,0.55,0.09,1.05,0.26,1.49s0.41,0.83,0.7,1.15c0.3,0.32,0.64,0.57,1.03,0.74
			c0.03,0.02,0.85,0.47,2.37,0.47c1.6,0,3.32-0.49,5.11-1.46c0.57,0.82,1.12,1.73,1.64,2.7c-0.24,0.32-2.3,2.73-8.01,2.73H519.54z
			 M520.08,131.72c-1.07,0-1.91,0.29-2.49,0.87c-0.58,0.58-0.87,1.37-0.87,2.37c0,0.05,0.04,0.09,0.09,0.09h6.38
			c0.05,0,0.09-0.04,0.09-0.09c0-0.43-0.09-0.84-0.26-1.23c-0.17-0.39-0.41-0.74-0.7-1.03c-0.29-0.29-0.64-0.53-1.02-0.71
			C520.91,131.82,520.5,131.72,520.08,131.72z M463.61,145.48l-10.38-16.33c-0.02-0.03-0.05-0.04-0.08-0.04c-0.01,0-0.02,0-0.03,0
			c-0.04,0.01-0.07,0.05-0.07,0.09v16.28h-6.08v-25.5h7.13l9.79,15.29c0.02,0.03,0.05,0.04,0.08,0.04c0.01,0,0.02,0,0.03,0
			c0.04-0.01,0.07-0.05,0.07-0.09l-0.02-15.24h5.6v25.5C469.65,145.48,463.61,145.48,463.61,145.48z M503.93,145.1v-10.19
			c0-1.52-1.24-2.76-2.76-2.76c-1.52,0-2.76,1.24-2.76,2.76l-0.06,10.19h-5.99v-25.05h6.34v9.09c0,0.04,0.02,0.07,0.05,0.08
			c0.01,0.01,0.03,0.01,0.04,0.01c0.02,0,0.04-0.01,0.06-0.02c1.58-1.18,3.19-1.78,4.78-1.78c0.46,0,0.93,0.05,1.39,0.15
			c3.1,0.7,4.74,3.2,4.74,7.23v10.28L503.93,145.1L503.93,145.1z M512.74,126.42l4.38-5.28h4.72l4.14,4.9h-4.36l-1.88-1.68
			c-0.02-0.02-0.04-0.02-0.06-0.02c-0.02,0-0.04,0.01-0.06,0.02l-2.43,2.13L512.74,126.42z"/>
		
			<linearGradient id="SVGID_00000004544142100684554930000002260313545961591709_" gradientUnits="userSpaceOnUse" x1="418.1075" y1="1175.7976" x2="418.1075" y2="1150.9276" gradientTransform="matrix(1 0 0 1 0 -1030.4276)">
			<stop  offset="0" style="stop-color:#F4831F"/>
			<stop  offset="0.4034" style="stop-color:#F89E1B"/>
			<stop  offset="0.5707" style="stop-color:#FAAA19"/>
			<stop  offset="0.5915" style="stop-color:#FAAC18"/>
			<stop  offset="0.9171" style="stop-color:#FFC908"/>
		</linearGradient>
		
			<linearGradient id="SVGID_00000061434815409404443410000012827090619769587863_" gradientUnits="userSpaceOnUse" x1="418.1075" y1="1175.9636" x2="418.1075" y2="1150.7616" gradientTransform="matrix(1 0 0 1 0 -1030.4276)">
			<stop  offset="2.492013e-07" style="stop-color:#F6921D"/>
			<stop  offset="0.6779" style="stop-color:#FFC908"/>
			<stop  offset="0.7332" style="stop-color:#FED025"/>
			<stop  offset="0.8525" style="stop-color:#FBE16F"/>
			<stop  offset="0.9638" style="stop-color:#F8F3B9"/>
		</linearGradient>
		
			<path style="fill:url(#SVGID_00000004544142100684554930000002260313545961591709_);stroke:url(#SVGID_00000061434815409404443410000012827090619769587863_);stroke-width:0.332;stroke-linecap:round;stroke-linejoin:round;stroke-miterlimit:10;" d="
			M427.31,125.65c-0.06,0-0.08-0.04-0.09-0.06c-0.01-0.02-0.02-0.07,0.01-0.11l3.93-4.94c0.03-0.01,0.05-0.03,0.08-0.04h4.68
			c0.06,0,0.09,0.04,0.1,0.06c0.01,0.02,0.02,0.07-0.02,0.12l-4.8,5.12c-0.03,0.01-0.05,0.02-0.08,0.03L427.31,125.65z
			 M425.82,145.23c0.56-0.09,1.08-0.25,1.55-0.49c0.47-0.23,0.93-0.55,1.35-0.93c0.42-0.39,0.85-0.89,1.27-1.5
			c0.05-0.08,0.14-0.12,0.23-0.12c0.03,0,0.06,0,0.08,0.01c0.12,0.04,0.2,0.15,0.2,0.27v2.37h5.64v-13.53
			c0-0.12,0.08-0.23,0.19-0.27c4.35-1.63,3.91-5.73,3.73-6.73h-3.27v2.66c0,0.05,0,0.47-0.29,0.77c-0.12,0.13-0.35,0.28-0.77,0.28
			h-4.93v9.34c0,1.72-1.15,3.31-2.84,3.65c-2.3,0.47-4.34-1.29-4.34-3.51v-9.62h-5.72v10.19c0,1.25,0.15,2.36,0.44,3.28
			c0.29,0.91,0.69,1.67,1.21,2.26c0.51,0.58,1.14,1.03,1.88,1.32c0.74,0.29,1.58,0.44,2.48,0.44
			C424.61,145.37,425.25,145.33,425.82,145.23z M416.16,144.83l-6.78-8.28c-0.08-0.1-0.09-0.25,0-0.35l6.74-8.65h-6.25l-3.46,4.73
			c-0.05,0.07-0.14,0.12-0.23,0.12h-0.01c-0.09,0-0.18-0.06-0.23-0.14l-2.81-4.71h-6.57l6.23,8.47c0.08,0.1,0.07,0.24-0.01,0.34
			l-6.73,8.46h6.89l2.92-4.97c0.05-0.09,0.14-0.14,0.24-0.14h0.01c0.1,0,0.2,0.06,0.24,0.15l2.5,4.95h7.31V144.83L416.16,144.83z"/>
		<g>
			<path class="st55" d="M427.3,125.93l3.8,0.18c0.11,0.01,0.22-0.04,0.3-0.12l4.8-5.12c0.23-0.25,0.06-0.66-0.28-0.66h-4.68
				c-0.12,0-0.23,0.05-0.3,0.15l-3.93,4.94C426.81,125.55,426.98,125.92,427.3,125.93z"/>
			<path class="st55" d="M440.3,124.04h-3.79v2.95c0,0,0.02,0.79-0.78,0.76h-5.21v9.77c0,1.83-1.48,3.3-3.3,3.3l0,0
				c-1.83,0-3.3-1.48-3.3-3.3v-0.68v-9.23h-6.29v10.47c0,1.29,0.15,2.41,0.45,3.36c0.3,0.95,0.72,1.74,1.27,2.36
				c0.54,0.62,1.21,1.09,1.98,1.39c0.78,0.31,1.64,0.46,2.59,0.46c0.72,0,1.37-0.05,1.96-0.14c0.59-0.1,1.13-0.27,1.63-0.51
				c0.5-0.25,0.97-0.57,1.41-0.97c0.44-0.4,0.88-0.92,1.31-1.55v2.65h6.2v-13.81C441.6,129.39,440.3,124.04,440.3,124.04z"/>
			<path class="st55" d="M409.6,136.37l6.75-8.66c0.14-0.18,0.01-0.45-0.22-0.45h-6.4l-3.55,4.85l-2.9-4.85h-6.8
				c-0.2,0-0.32,0.23-0.2,0.39l6.28,8.53l-6.54,8.24c-0.22,0.28-0.02,0.68,0.33,0.68h6.77l3-5.1l2.58,5.1h7.39
				c0.27,0,0.42-0.31,0.25-0.52L409.6,136.37z"/>
		</g>
	</g>
</g>
</svg>
